<svg width="23" height="23" viewBox="0 0 23 23" fill="none" xmlns="http://www.w3.org/2000/svg">
<path d="M17.3961 22.6145C16.844 22.6145 16.1357 22.4374 15.2503 21.9166L12.1357 20.0729C11.8128 19.8854 11.1878 19.8854 10.8753 20.0729L7.75028 21.9166C5.90653 23.0104 4.8232 22.5729 4.33362 22.2187C3.85445 21.8645 3.10445 20.9583 3.59404 18.8749L4.33362 15.677C4.41695 15.3437 4.25029 14.7708 4.00029 14.5208L1.41695 11.9374C0.125285 10.6458 0.229452 9.54161 0.406535 8.99994C0.583619 8.45827 1.14612 7.49994 2.93779 7.19785L6.2607 6.64577C6.5732 6.59369 7.02112 6.26035 7.15654 5.9791L9.00029 2.30202C9.83362 0.624939 10.9274 0.374939 11.5003 0.374939C12.0732 0.374939 13.167 0.624939 14.0003 2.30202L15.8336 5.96869C15.9795 6.24994 16.4274 6.58327 16.7399 6.63535L20.0628 7.18744C21.8649 7.48952 22.4274 8.44786 22.594 8.98952C22.7607 9.53119 22.8649 10.6354 21.5836 11.927L19.0003 14.5208C18.7503 14.7708 18.594 15.3333 18.667 15.677L19.4065 18.8749C19.8857 20.9583 19.1461 21.8645 18.667 22.2187C18.4065 22.4062 17.9899 22.6145 17.3961 22.6145ZM11.5003 18.3645C12.0107 18.3645 12.5211 18.4895 12.9274 18.7291L16.042 20.5729C16.9482 21.1145 17.5211 21.1145 17.7399 20.9583C17.9586 20.802 18.1149 20.2499 17.8857 19.2291L17.1461 16.0312C16.9482 15.1666 17.2711 14.052 17.8961 13.4166L20.4795 10.8333C20.9899 10.3229 21.219 9.82286 21.1149 9.47911C21.0003 9.13536 20.5211 8.85411 19.8128 8.73952L16.4899 8.18744C15.6878 8.05202 14.8128 7.40619 14.4482 6.67702L12.6149 3.01036C12.2815 2.34369 11.8649 1.94786 11.5003 1.94786C11.1357 1.94786 10.719 2.34369 10.3961 3.01036L8.55237 6.67702C8.18779 7.40619 7.31279 8.05202 6.5107 8.18744L3.1982 8.73952C2.48987 8.85411 2.0107 9.13536 1.89612 9.47911C1.78154 9.82286 2.02112 10.3333 2.53154 10.8333L5.11487 13.4166C5.73987 14.0416 6.06279 15.1666 5.86487 16.0312L5.12529 19.2291C4.8857 20.2604 5.05237 20.802 5.27112 20.9583C5.48987 21.1145 6.05237 21.1041 6.96904 20.5729L10.0836 18.7291C10.4795 18.4895 10.9899 18.3645 11.5003 18.3645Z" fill="#171717"/>
</svg>
