<svg width="15" height="15" viewBox="0 0 15 15" fill="none" xmlns="http://www.w3.org/2000/svg">
<path d="M3.29982 11.6562L3.65607 10.1125C3.73732 9.74999 3.59357 9.24374 3.33107 8.98124L1.78107 7.43124C0.868571 6.51874 1.16232 5.59374 2.43732 5.38124L4.43107 5.04999C4.76232 4.99374 5.16232 4.69999 5.31232 4.39374L6.41232 2.19374C7.00607 0.999994 7.98107 0.999994 8.58107 2.19374L9.68107 4.39374C9.74982 4.53749 9.88107 4.67499 10.0248 4.79374" stroke="#171717" stroke-width="1.5" stroke-linecap="round" stroke-linejoin="round"/>
<path d="M12.5622 5.38126C13.8372 5.59376 14.1372 6.51876 13.2185 7.43126L11.6685 8.98126C11.406 9.24376 11.2622 9.75001 11.3435 10.1125L11.7872 12.0313C12.1372 13.55 11.331 14.1375 9.98721 13.3438L8.11846 12.2375C7.78096 12.0375 7.22471 12.0375 6.88096 12.2375L5.01221 13.3438" stroke="#171717" stroke-width="1.5" stroke-linecap="round" stroke-linejoin="round"/>
<path d="M13.75 1.24997L1.25 13.75" stroke="#171717" stroke-width="1.5" stroke-linecap="round" stroke-linejoin="round"/>
</svg>
