<svg width="20" height="20" viewBox="0 0 20 20" fill="none" xmlns="http://www.w3.org/2000/svg">
<path d="M5.58367 14.9993H3.45868C2.26701 14.9993 1.66699 14.3993 1.66699 13.2077V3.4577C1.66699 2.26604 2.26701 1.66602 3.45868 1.66602H7.042C8.23367 1.66602 8.83364 2.26604 8.83364 3.4577V4.99935" stroke="#171717" stroke-width="1.2" stroke-miterlimit="10" stroke-linecap="round" stroke-linejoin="round"/>
<path d="M14.4747 7.01665V16.3167C14.4747 17.6583 13.808 18.3333 12.4663 18.3333H7.59966C6.25799 18.3333 5.58301 17.6583 5.58301 16.3167V7.01665C5.58301 5.67499 6.25799 5 7.59966 5H12.4663C13.808 5 14.4747 5.67499 14.4747 7.01665Z" stroke="#171717" stroke-width="1.2" stroke-miterlimit="10" stroke-linecap="round" stroke-linejoin="round"/>
<path d="M11.167 4.99935V3.4577C11.167 2.26604 11.767 1.66602 12.9586 1.66602H16.542C17.7336 1.66602 18.3336 2.26604 18.3336 3.4577V13.2077C18.3336 14.3993 17.7336 14.9993 16.542 14.9993H14.4753" stroke="#171717" stroke-width="1.2" stroke-miterlimit="10" stroke-linecap="round" stroke-linejoin="round"/>
<path d="M8.33301 9.16602H11.6663" stroke="#171717" stroke-width="1.2" stroke-miterlimit="10" stroke-linecap="round" stroke-linejoin="round"/>
<path d="M8.33301 11.666H11.6663" stroke="#171717" stroke-width="1.2" stroke-miterlimit="10" stroke-linecap="round" stroke-linejoin="round"/>
<path d="M10 18.334V15.834" stroke="#171717" stroke-width="1.2" stroke-miterlimit="10" stroke-linecap="round" stroke-linejoin="round"/>
</svg>
