<svg width="22" height="22" viewBox="0 0 22 22" fill="none" xmlns="http://www.w3.org/2000/svg">
<path d="M19.3233 7.86568V14.1356C19.3233 15.1623 18.7733 16.1157 17.8841 16.6382L12.4391 19.7823C11.55 20.2957 10.45 20.2957 9.55165 19.7823L4.10665 16.6382C3.21748 16.1249 2.66748 15.1715 2.66748 14.1356V7.86568C2.66748 6.83902 3.21748 5.88564 4.10665 5.36314L9.55165 2.21898C10.4408 1.70565 11.5408 1.70565 12.4391 2.21898L17.8841 5.36314C18.7733 5.88564 19.3233 6.82985 19.3233 7.86568Z" stroke="#171717" stroke-width="1.5" stroke-linecap="round" stroke-linejoin="round"/>
<path d="M11.0001 10.0841C12.1797 10.0841 13.1359 9.12788 13.1359 7.94829C13.1359 6.7687 12.1797 5.8125 11.0001 5.8125C9.8205 5.8125 8.86426 6.7687 8.86426 7.94829C8.86426 9.12788 9.8205 10.0841 11.0001 10.0841Z" stroke="#171717" stroke-width="1.5" stroke-linecap="round" stroke-linejoin="round"/>
<path d="M14.6668 15.2734C14.6668 13.6234 13.026 12.2852 11.0002 12.2852C8.97433 12.2852 7.3335 13.6234 7.3335 15.2734" stroke="#171717" stroke-width="1.5" stroke-linecap="round" stroke-linejoin="round"/>
</svg>
