<svg width="21" height="20" viewBox="0 0 21 20" fill="none" xmlns="http://www.w3.org/2000/svg">
<mask id="path-1-inside-1_190_3071" fill="white">
<path d="M15.4737 20H4.87513C3.15287 20 1.58202 18.6752 1.29813 16.9718L0.0395528 9.43936C-0.159169 8.26595 0.408613 6.76135 1.34545 6.01377L7.90329 0.76178C9.17132 -0.26022 11.168 -0.250747 12.4455 0.771253L19.0033 6.01377C19.9307 6.76135 20.4985 8.26595 20.3092 9.43936L19.0507 16.9718C18.7668 18.6468 17.1675 20 15.4737 20ZM10.1649 1.43367C9.6634 1.43367 9.16185 1.58505 8.79279 1.8784L2.23497 7.13039C1.69558 7.56569 1.32653 8.53087 1.44008 9.2122L2.69866 16.7447C2.86899 17.7383 3.86259 18.5806 4.87513 18.5806H15.4737C16.4862 18.5806 17.4798 17.7383 17.6501 16.7353L18.9087 9.20279C19.0223 8.52145 18.6437 7.54676 18.1138 7.12092L11.556 1.8784C11.1775 1.58505 10.6759 1.43367 10.1649 1.43367Z"/>
</mask>
<path d="M15.4737 20H4.87513C3.15287 20 1.58202 18.6752 1.29813 16.9718L0.0395528 9.43936C-0.159169 8.26595 0.408613 6.76135 1.34545 6.01377L7.90329 0.76178C9.17132 -0.26022 11.168 -0.250747 12.4455 0.771253L19.0033 6.01377C19.9307 6.76135 20.4985 8.26595 20.3092 9.43936L19.0507 16.9718C18.7668 18.6468 17.1675 20 15.4737 20ZM10.1649 1.43367C9.6634 1.43367 9.16185 1.58505 8.79279 1.8784L2.23497 7.13039C1.69558 7.56569 1.32653 8.53087 1.44008 9.2122L2.69866 16.7447C2.86899 17.7383 3.86259 18.5806 4.87513 18.5806H15.4737C16.4862 18.5806 17.4798 17.7383 17.6501 16.7353L18.9087 9.20279C19.0223 8.52145 18.6437 7.54676 18.1138 7.12092L11.556 1.8784C11.1775 1.58505 10.6759 1.43367 10.1649 1.43367Z" fill="white"/>
<path d="M1.29813 16.9718L2.77772 16.7252L2.77762 16.7246L1.29813 16.9718ZM0.0395528 9.43936L1.51905 9.19216L1.51849 9.18889L0.0395528 9.43936ZM1.34545 6.01377L2.28105 7.18623L2.28311 7.18458L1.34545 6.01377ZM7.90329 0.76178L8.84096 1.93259L8.84458 1.92967L7.90329 0.76178ZM12.4455 0.771253L11.5085 1.94256L11.5089 1.94288L12.4455 0.771253ZM19.0033 6.01377L19.9447 4.84595L19.94 4.84214L19.0033 6.01377ZM20.3092 9.43936L21.7887 9.68657L21.7901 9.67821L20.3092 9.43936ZM19.0507 16.9718L20.5296 17.2225L20.5301 17.219L19.0507 16.9718ZM8.79279 1.8784L7.85942 0.70416L7.85513 0.707599L8.79279 1.8784ZM2.23497 7.13039L1.29729 5.95958L1.29294 5.9631L2.23497 7.13039ZM1.44008 9.2122L-0.0395093 9.4588L-0.0394087 9.4594L1.44008 9.2122ZM2.69866 16.7447L1.21915 16.9919L1.22022 16.9982L2.69866 16.7447ZM17.6501 16.7353L19.129 16.9864L19.1296 16.9825L17.6501 16.7353ZM18.9087 9.20279L20.3882 9.44999L20.3883 9.44938L18.9087 9.20279ZM18.1138 7.12092L19.0534 5.95165L19.0505 5.94929L18.1138 7.12092ZM11.556 1.8784L12.4926 0.706774L12.4838 0.69971L12.4748 0.692781L11.556 1.8784ZM15.4737 18.5H4.87513V21.5H15.4737V18.5ZM4.87513 18.5C3.88378 18.5 2.94068 17.703 2.77772 16.7252L-0.181462 17.2184C0.223359 19.6474 2.42195 21.5 4.87513 21.5V18.5ZM2.77762 16.7246L1.51904 9.19216L-1.43994 9.68656L-0.181361 17.219L2.77762 16.7246ZM1.51849 9.18889C1.47269 8.91842 1.50839 8.5219 1.66882 8.09975C1.82921 7.67773 2.06556 7.35818 2.28104 7.18623L0.409849 4.84131C-0.311496 5.41693 -0.827457 6.22347 -1.13549 7.034C-1.44348 7.84441 -1.5923 8.78689 -1.43939 9.68983L1.51849 9.18889ZM2.28311 7.18458L8.84095 1.93259L6.96562 -0.409025L0.407781 4.84297L2.28311 7.18458ZM8.84458 1.92967C9.55541 1.35676 10.7709 1.35252 11.5085 1.94256L13.3825 -0.400051C11.5651 -1.85401 8.78724 -1.8772 6.962 -0.406114L8.84458 1.92967ZM11.5089 1.94288L18.0667 7.1854L19.94 4.84214L13.3821 -0.400378L11.5089 1.94288ZM18.0619 7.18158C18.2749 7.35325 18.5111 7.67418 18.6729 8.09976C18.8345 8.52505 18.8727 8.92593 18.8284 9.20051L21.7901 9.67821C21.9351 8.77939 21.784 7.84125 21.4772 7.034C21.1705 6.22703 20.6591 5.42187 19.9447 4.84596L18.0619 7.18158ZM18.8297 9.19216L17.5712 16.7246L20.5301 17.219L21.7887 9.68656L18.8297 9.19216ZM17.5717 16.7212C17.4097 17.6772 16.4333 18.5 15.4737 18.5V21.5C17.9018 21.5 20.1238 19.6163 20.5296 17.2225L17.5717 16.7212ZM10.1649 -0.0663284C9.38559 -0.0663284 8.53808 0.164723 7.85943 0.704168L9.72616 3.05264C9.78561 3.00538 9.94121 2.93367 10.1649 2.93367V-0.0663284ZM7.85513 0.707599L1.2973 5.95959L3.17263 8.3012L9.73046 3.04921L7.85513 0.707599ZM1.29294 5.9631C0.759501 6.39359 0.401047 6.99501 0.191426 7.54376C-0.0179964 8.09199 -0.152543 8.7806 -0.0395092 9.4588L2.91967 8.9656C2.92138 8.97587 2.9154 8.94459 2.92601 8.86885C2.93619 8.79622 2.95825 8.70767 2.99391 8.6143C3.02957 8.52097 3.07236 8.43973 3.11373 8.37792C3.15683 8.31355 3.18323 8.29266 3.177 8.29769L1.29294 5.9631ZM-0.0394087 9.4594L1.21917 16.9919L4.17815 16.4975L2.91957 8.965L-0.0394087 9.4594ZM1.22022 16.9982C1.51359 18.7095 3.12948 20.0806 4.87513 20.0806V17.0806C4.59571 17.0806 4.22439 16.7672 4.17709 16.4913L1.22022 16.9982ZM4.87513 20.0806H15.4737V17.0806H4.87513V20.0806ZM15.4737 20.0806C17.2227 20.0806 18.837 18.7057 19.129 16.9864L16.1713 16.4841C16.1226 16.7709 15.7497 17.0806 15.4737 17.0806V20.0806ZM19.1296 16.9825L20.3882 9.44999L17.4292 8.95558L16.1706 16.4881L19.1296 16.9825ZM20.3883 9.44938C20.5022 8.76617 20.3621 8.07327 20.1529 7.52845C19.9439 6.98398 19.5862 6.37979 19.0534 5.95166L17.1742 8.29018C17.1624 8.28069 17.1869 8.29844 17.2305 8.36367C17.272 8.42575 17.3156 8.50832 17.3522 8.60363C17.3888 8.69896 17.4116 8.78923 17.4221 8.86286C17.4332 8.93997 17.4268 8.96982 17.4291 8.95619L20.3883 9.44938ZM19.0505 5.94929L12.4926 0.706774L10.6194 3.05003L17.1772 8.29255L19.0505 5.94929ZM12.4748 0.692781C11.7939 0.165032 10.9549 -0.0663284 10.1649 -0.0663284V2.93367C10.3969 2.93367 10.5611 3.00507 10.6371 3.06403L12.4748 0.692781Z" fill="#171717" mask="url(#path-1-inside-1_190_3071)"/>
<path d="M8.33301 15H11.6663" stroke="#171717" stroke-width="2" stroke-linecap="round"/>
</svg>
