<svg width="18" height="18" viewBox="0 0 18 18" fill="none" xmlns="http://www.w3.org/2000/svg">
<path d="M12 6.74265V15.2627C12 16.3502 11.22 16.8076 10.2675 16.2826L7.32001 14.6401C7.00501 14.4676 6.49499 14.4676 6.17999 14.6401L3.2325 16.2826C2.28 16.8076 1.5 16.3502 1.5 15.2627V6.74265C1.5 5.46015 2.54999 4.41016 3.83249 4.41016H9.66751C10.95 4.41016 12 5.46015 12 6.74265Z" stroke="#171717" stroke-width="1.2" stroke-linecap="round" stroke-linejoin="round"/>
<path d="M16.5 3.83249V12.3525C16.5 13.44 15.72 13.8975 14.7675 13.3725L12 11.8275V6.74249C12 5.45999 10.95 4.41 9.66751 4.41H6V3.83249C6 2.54999 7.04999 1.5 8.33249 1.5H14.1675C15.45 1.5 16.5 2.54999 16.5 3.83249Z" stroke="#171717" stroke-width="1.2" stroke-linecap="round" stroke-linejoin="round"/>
<path d="M5.25 9H8.25" stroke="#171717" stroke-width="1.2" stroke-linecap="round" stroke-linejoin="round"/>
<path d="M6.75 10.5V7.5" stroke="#171717" stroke-width="1.2" stroke-linecap="round" stroke-linejoin="round"/>
</svg>
