<svg width="80" height="30" viewBox="0 0 80 30" fill="none" xmlns="http://www.w3.org/2000/svg">
<g clip-path="url(#clip0_190_2945)">
<path d="M4.67334 16.1884V24.8238L4.4784 25.0187H0.0632244L0 0.861704C3.38778 1.04611 7.09694 0.556119 10.4373 1.00923C16.0327 1.76792 18.4089 7.40017 16.0432 12.3001C13.8883 16.7574 8.85142 16.2937 4.67334 16.1884ZM4.67334 12.1578H8.24552C8.62487 12.1578 9.5785 11.9418 9.99473 11.8311C12.8188 11.0725 13.2771 6.9734 10.7798 5.593C10.4531 5.4086 9.22023 5.01344 8.8883 5.01344H4.66807V12.1578H4.67334Z" fill="#F78E2F"/>
<path d="M75.8428 25.0193V24.113C74.5941 24.7031 73.2927 25.309 71.886 25.4144C64.5836 25.9729 59.9102 18.0013 63.5298 11.7316C66.0325 7.40071 71.5172 5.99923 75.7796 8.65466L75.8428 7.61673H79.9998L79.8681 25.0193H75.8428ZM74.2411 20.2985C79.0672 16.1151 73.2717 8.50187 68.3244 12.2374C62.8502 16.3733 69.2727 24.603 74.2411 20.2985Z" fill="#F78E2F"/>
<path d="M29.7421 25.0186V24.1124C29.0519 24.3337 28.5303 24.7499 27.8243 24.9817C23.0667 26.5518 17.8454 23.7541 16.5335 18.9438C14.3575 10.9459 22.5556 4.36003 29.7421 8.65402V7.61609H33.7674V25.0186H29.7421ZM28.2669 20.1661C33.1826 15.6561 26.3122 7.95329 21.6072 12.7267C17.171 17.2262 23.5672 24.4865 28.2669 20.1661Z" fill="#F78E2F"/>
<path d="M42.729 0.860818V4.94933L42.513 5.1232C40.9534 5.04944 39.7153 5.94512 39.9998 7.61003H42.729V11.5036H39.9998V24.9441L35.8428 29.1643V6.11898C35.8428 6.00834 36.1062 5.07051 36.1694 4.88611C37.1073 2.19907 39.9945 0.808131 42.729 0.860818Z" fill="#F78E2F"/>
<path d="M54.9363 0.861328V25.0183H50.9742L50.7793 24.8234V0.861328H54.9363Z" fill="#F78E2F"/>
<path d="M61.1697 7.61523V25.0178H57.2076L57.0127 24.8228V7.61523H61.1697Z" fill="#F78E2F"/>
<path d="M48.6991 7.61523H44.6738V25.0178H48.6991V7.61523Z" fill="#F78E2F"/>
<path d="M61.1698 0.861328L57.1445 5.01834V0.861328H61.1698Z" fill="#F78E2F"/>
</g>
<defs>
<clipPath id="clip0_190_2945">
<rect width="80" height="28.3614" fill="white" transform="translate(0 0.808594)"/>
</clipPath>
</defs>
</svg>
