<svg width="21" height="20" viewBox="0 0 21 20" fill="none" xmlns="http://www.w3.org/2000/svg">
<path d="M15.4737 20H4.87513C3.15287 20 1.58202 18.6752 1.29813 16.9718L0.0395528 9.43936C-0.159169 8.26595 0.408613 6.76135 1.34545 6.01377L7.90329 0.76178C9.17132 -0.26022 11.168 -0.250747 12.4455 0.771253L19.0033 6.01377C19.9307 6.76135 20.4985 8.26595 20.3092 9.43936L19.0507 16.9718C18.7668 18.6468 17.1675 20 15.4737 20ZM10.1649 1.43367C9.6634 1.43367 9.16185 1.58505 8.79279 1.8784L2.23497 7.13039C1.69558 7.56569 1.32653 8.53087 1.44008 9.2122L2.69866 16.7447C2.86899 17.7383 3.86259 18.5806 4.87513 18.5806H15.4737C16.4862 18.5806 17.4798 17.7383 17.6501 16.7353L18.9087 9.20279C19.0223 8.52145 18.6437 7.54676 18.1138 7.12092L11.556 1.8784C11.1775 1.58505 10.6759 1.43367 10.1649 1.43367Z" fill="white"/>
<path d="M8.33301 15H11.6663" stroke="white" stroke-width="2" stroke-linecap="round"/>
</svg>
