<svg width="21" height="21" viewBox="0 0 21 21" fill="none" xmlns="http://www.w3.org/2000/svg">
<path d="M19.2235 16.0378C19.2235 16.3528 19.1535 16.6765 19.0048 16.9915C18.856 17.3065 18.6635 17.604 18.4098 17.884C17.981 18.3565 17.5085 18.6978 16.9748 18.9165C16.4498 19.1353 15.881 19.249 15.2685 19.249C14.376 19.249 13.4223 19.039 12.416 18.6103C11.4098 18.1815 10.4035 17.604 9.40601 16.8778C8.39976 16.1428 7.44601 15.329 6.53601 14.4278C5.63476 13.5178 4.82101 12.564 4.09476 11.5665C3.37726 10.569 2.79976 9.57152 2.37976 8.58277C1.95976 7.58527 1.74976 6.63152 1.74976 5.72152C1.74976 5.12652 1.85476 4.55777 2.06476 4.03277C2.27476 3.49902 2.60726 3.00902 3.07101 2.57152C3.63101 2.02027 4.24351 1.74902 4.89101 1.74902C5.13601 1.74902 5.38101 1.80152 5.59976 1.90652C5.82726 2.01152 6.02851 2.16902 6.18601 2.39652L8.21601 5.25777C8.37351 5.47652 8.48726 5.67777 8.56601 5.87027C8.64476 6.05402 8.68851 6.23777 8.68851 6.40402C8.68851 6.61402 8.62726 6.82402 8.50476 7.02527C8.39101 7.22652 8.22476 7.43652 8.01476 7.64652L7.34976 8.33777C7.25351 8.43402 7.20976 8.54777 7.20976 8.68777C7.20976 8.75777 7.21851 8.81902 7.23601 8.88902C7.26226 8.95902 7.28851 9.01152 7.30601 9.06402C7.46351 9.35277 7.73476 9.72902 8.11976 10.184C8.51351 10.639 8.93351 11.1028 9.38851 11.5665C9.86101 12.0303 10.316 12.459 10.7798 12.8528C11.2348 13.2378 11.611 13.5003 11.9085 13.6578C11.9523 13.6753 12.0048 13.7015 12.066 13.7278C12.136 13.754 12.206 13.7628 12.2848 13.7628C12.4335 13.7628 12.5473 13.7103 12.6435 13.614L13.3085 12.9578C13.5273 12.739 13.7373 12.5728 13.9385 12.4678C14.1398 12.3453 14.341 12.284 14.5598 12.284C14.726 12.284 14.901 12.319 15.0935 12.3978C15.286 12.4765 15.4873 12.5903 15.706 12.739L18.6023 14.7953C18.8298 14.9528 18.9873 15.1365 19.0835 15.3553C19.171 15.574 19.2235 15.7928 19.2235 16.0378Z" stroke="white" stroke-width="1.5" stroke-miterlimit="10"/>
<path d="M17.4998 3.5H13.2998M17.4998 3.5V7.7V3.5Z" stroke="white" stroke-width="1.5" stroke-linecap="round" stroke-linejoin="round"/>
</svg>
