<svg width="26" height="28" viewBox="0 0 26 28" fill="none" xmlns="http://www.w3.org/2000/svg">
<path d="M25.8026 10.3333C25.8026 9.89006 25.4433 9.53071 25 9.53071C24.5567 9.53071 24.1974 9.89006 24.1974 10.3333H25.8026ZM1 5.53071C0.556722 5.53071 0.197373 5.89006 0.197373 6.33333C0.197373 6.77661 0.556722 7.13596 1 7.13596V5.53071ZM5 7.13596C5.44328 7.13596 5.80263 6.77661 5.80263 6.33333C5.80263 5.89006 5.44328 5.53071 5 5.53071V7.13596ZM1 10.864C0.556722 10.864 0.197373 11.2234 0.197373 11.6667C0.197373 12.1099 0.556722 12.4693 1 12.4693V10.864ZM5 12.4693C5.44328 12.4693 5.80263 12.1099 5.80263 11.6667C5.80263 11.2234 5.44328 10.864 5 10.864V12.4693ZM1 16.1974C0.556722 16.1974 0.197373 16.5567 0.197373 17C0.197373 17.4433 0.556722 17.8026 1 17.8026V16.1974ZM5 17.8026C5.44328 17.8026 5.80263 17.4433 5.80263 17C5.80263 16.5567 5.44328 16.1974 5 16.1974V17.8026ZM17 8.86404C16.5567 8.86404 16.1974 9.22339 16.1974 9.66667C16.1974 10.1099 16.5567 10.4693 17 10.4693V8.86404ZM19.6667 10.4693C20.1099 10.4693 20.4693 10.1099 20.4693 9.66667C20.4693 9.22339 20.1099 8.86404 19.6667 8.86404V10.4693ZM17.0003 18.864C16.557 18.864 16.1977 19.2234 16.1977 19.6667C16.1977 20.1099 16.557 20.4693 17.0003 20.4693V18.864ZM19.667 20.4693C20.1103 20.4693 20.4696 20.1099 20.4696 19.6667C20.4696 19.2234 20.1103 18.864 19.667 18.864V20.4693ZM17.0003 13.5307C16.557 13.5307 16.1977 13.8901 16.1977 14.3333C16.1977 14.7766 16.557 15.136 17.0003 15.136V13.5307ZM19.667 15.136C20.1103 15.136 20.4696 14.7766 20.4696 14.3333C20.4696 13.8901 20.1103 13.5307 19.667 13.5307V15.136ZM17.531 26.3333C17.531 26.7766 17.8903 27.136 18.3336 27.136C18.7769 27.136 19.1362 26.7766 19.1362 26.3333H17.531ZM19.1362 23C19.1362 22.5567 18.7769 22.1974 18.3336 22.1974C17.8903 22.1974 17.531 22.5567 17.531 23H19.1362ZM25.8026 11V6.02564H24.1974V11H25.8026ZM25.8026 6.02564C25.8026 4.85608 25.4614 3.76428 24.8696 2.94486C24.2786 2.1265 23.3923 1.53071 22.3333 1.53071V3.13596C22.7472 3.13596 23.1942 3.36672 23.5683 3.88471C23.9416 4.40164 24.1974 5.15599 24.1974 6.02564H25.8026ZM22.3333 1.53071H14.3333V3.13596H22.3333V1.53071ZM14.3333 1.53071C13.2744 1.53071 12.3881 2.1265 11.797 2.94486C11.2052 3.76428 10.864 4.85608 10.864 6.02564H12.4693C12.4693 5.15599 12.725 4.40164 13.0984 3.88471C13.4725 3.36672 13.9195 3.13596 14.3333 3.13596V1.53071ZM10.864 6.02564V26.3333H12.4693V6.02564H10.864ZM1.80263 3.66667C1.80263 2.63719 2.63719 1.80263 3.66667 1.80263V0.197373C1.75063 0.197373 0.197373 1.75063 0.197373 3.66667H1.80263ZM3.66667 1.80263H14.3333V0.197373H3.66667V1.80263ZM14.3333 1.80263C15.0119 1.80263 15.2351 1.93225 15.3181 2.01525C15.4011 2.09826 15.5307 2.32143 15.5307 3H17.136C17.136 2.20581 17.002 1.42898 16.4532 0.880177C15.9044 0.331367 15.1275 0.197373 14.3333 0.197373V1.80263ZM0.197373 23.7733C0.197373 25.7452 2.02399 27.136 4 27.136V25.5307C2.6623 25.5307 1.80263 24.6293 1.80263 23.7733H0.197373ZM4 27.136H22V25.5307H4V27.136ZM22 27.136C23.9761 27.136 25.8026 25.7452 25.8026 23.7733H24.1974C24.1974 24.6293 23.3377 25.5307 22 25.5307V27.136ZM25.8026 23.7733V10.3333H24.1974V23.7733H25.8026ZM1 7.13596H5V5.53071H1V7.13596ZM1 12.4693H5V10.864H1V12.4693ZM1 17.8026H5V16.1974H1V17.8026ZM17 10.4693H19.6667V8.86404H17V10.4693ZM17.0003 20.4693H19.667V18.864H17.0003V20.4693ZM17.0003 15.136H19.667V13.5307H17.0003V15.136ZM19.1362 26.3333V23H17.531V26.3333H19.1362ZM1.80263 23.7733V3.66667H0.197373V23.7733H1.80263Z" fill="#9CA3AF"/>
</svg>
