<svg width="18" height="22" viewBox="0 0 18 22" fill="none" xmlns="http://www.w3.org/2000/svg">
<path d="M9 4.75C9 2.75 10.5 0.75 12.5 0.75C12.5 2.75 11 4.75 9 4.75Z" stroke="black" stroke-linejoin="round"/>
<path d="M9.5 7.09001C8.9851 7.09001 8.5867 6.92646 8.1414 6.74368C7.5776 6.51225 6.93875 6.25 5.89334 6.25C4.02235 6.25 1 7.74945 1 11.7495C1 16.4016 4.10471 21.25 6.10471 21.25C6.77426 21.25 7.3775 20.9871 7.954 20.7359C8.4815 20.5059 8.9868 20.2857 9.5 20.2857C10.0132 20.2857 10.5185 20.5059 11.046 20.7359C11.6225 20.9871 12.2257 21.25 12.8953 21.25C14.2879 21.25 15.9573 18.8992 17 15.9008C15.3793 15.2202 14.338 13.618 14.338 11.75C14.338 10.121 15.2036 9.0398 16.5 8.25C15.5 6.75 14.0134 6.25 12.9447 6.25C11.8993 6.25 11.2604 6.51225 10.6966 6.74368C10.2514 6.92646 10.0149 7.09001 9.5 7.09001Z" stroke="black" stroke-linejoin="round"/>
</svg>
