<svg width="14" height="14" viewBox="0 0 14 14" fill="none" xmlns="http://www.w3.org/2000/svg">
<path fill-rule="evenodd" clip-rule="evenodd" d="M14 6.99989C14 7.1988 13.921 7.38956 13.7803 7.53021C13.6397 7.67087 13.4489 7.74989 13.25 7.74989H2.61201L6.77001 11.7099C6.84435 11.7773 6.9044 11.859 6.9466 11.9501C6.98881 12.0411 7.0123 12.1398 7.01569 12.2401C7.01908 12.3404 7.00229 12.4404 6.96634 12.5341C6.93038 12.6278 6.87598 12.7133 6.80635 12.7856C6.73673 12.8579 6.6533 12.9155 6.56102 12.955C6.46873 12.9945 6.36945 13.015 6.26908 13.0154C6.16871 13.0158 6.06928 12.996 5.97668 12.9573C5.88408 12.9186 5.8002 12.8616 5.73001 12.7899L0.230008 7.53989C0.157421 7.46992 0.0996844 7.38604 0.0602489 7.29326C0.0208133 7.20048 0.000488281 7.1007 0.000488281 6.99989C0.000488281 6.89907 0.0208133 6.79929 0.0602489 6.70651C0.0996844 6.61373 0.157421 6.52985 0.230008 6.45989L5.73001 1.20989C5.8002 1.13814 5.88408 1.08121 5.97668 1.04247C6.06928 1.00374 6.16871 0.983984 6.26908 0.984381C6.36945 0.984778 6.46873 1.00532 6.56102 1.04479C6.6533 1.08425 6.73673 1.14184 6.80635 1.21414C6.87598 1.28644 6.93038 1.37199 6.96634 1.4657C7.00229 1.55941 7.01908 1.65939 7.01569 1.7597C7.0123 1.86002 6.98881 1.95863 6.9466 2.0497C6.9044 2.14077 6.84435 2.22245 6.77001 2.28989L2.61201 6.24989H13.25C13.4489 6.24989 13.6397 6.3289 13.7803 6.46956C13.921 6.61021 14 6.80097 14 6.99989Z" fill="black"/>
</svg>
