<svg width="20" height="20" viewBox="0 0 20 20" fill="none" xmlns="http://www.w3.org/2000/svg">
<path fill-rule="evenodd" clip-rule="evenodd" d="M16.9995 9.99989C16.9995 10.1988 16.9205 10.3896 16.7799 10.5302C16.6392 10.6709 16.4484 10.7499 16.2495 10.7499H5.61152L9.76952 14.7099C9.84386 14.7773 9.90392 14.859 9.94612 14.9501C9.98832 15.0411 10.0118 15.1398 10.0152 15.2401C10.0186 15.3404 10.0018 15.4404 9.96585 15.5341C9.92989 15.6278 9.87549 15.7133 9.80587 15.7856C9.73624 15.8579 9.65282 15.9155 9.56053 15.955C9.46824 15.9945 9.36897 16.015 9.26859 16.0154C9.16822 16.0158 9.06879 15.996 8.97619 15.9573C8.88359 15.9186 8.79971 15.8616 8.72952 15.7899L3.22952 10.5399C3.15693 10.4699 3.0992 10.386 3.05976 10.2933C3.02032 10.2005 3 10.1007 3 9.99989C3 9.89907 3.02032 9.79929 3.05976 9.70651C3.0992 9.61373 3.15693 9.52985 3.22952 9.45989L8.72952 4.20989C8.79971 4.13814 8.88359 4.08121 8.97619 4.04247C9.06879 4.00374 9.16822 3.98398 9.26859 3.98438C9.36897 3.98478 9.46824 4.00532 9.56053 4.04479C9.65282 4.08425 9.73624 4.14184 9.80587 4.21414C9.87549 4.28644 9.92989 4.37199 9.96585 4.4657C10.0018 4.55941 10.0186 4.65939 10.0152 4.7597C10.0118 4.86002 9.98832 4.95863 9.94612 5.0497C9.90392 5.14077 9.84386 5.22245 9.76952 5.28989L5.61152 9.24989H16.2495C16.4484 9.24989 16.6392 9.3289 16.7799 9.46956C16.9205 9.61021 16.9995 9.80097 16.9995 9.99989Z" fill="black"/>
</svg>
