<svg width="20" height="20" viewBox="0 0 20 20" fill="none" xmlns="http://www.w3.org/2000/svg">
<path d="M0.5 10C0.5 4.7533 4.7533 0.5 10 0.5C15.2467 0.5 19.5 4.7533 19.5 10C19.5 15.2467 15.2467 19.5 10 19.5C4.7533 19.5 0.5 15.2467 0.5 10Z" stroke="black"/>
<path fill-rule="evenodd" clip-rule="evenodd" d="M14.4158 5.37625C14.5813 5.48659 14.6962 5.65814 14.7352 5.85317C14.7742 6.04821 14.7342 6.25075 14.6238 6.41625L9.62385 13.9162C9.56226 14.0085 9.48099 14.0859 9.38588 14.143C9.29077 14.2 9.18418 14.2353 9.07381 14.2462C8.96343 14.2571 8.85202 14.2434 8.74758 14.206C8.64314 14.1687 8.54829 14.1087 8.46985 14.0302L5.46985 11.0302C5.33737 10.8881 5.26524 10.7 5.26867 10.5057C5.2721 10.3114 5.35081 10.126 5.48822 9.98863C5.62564 9.85121 5.81102 9.7725 6.00532 9.76907C6.19963 9.76565 6.38767 9.83777 6.52985 9.97025L8.88285 12.3232L13.3758 5.58325C13.4863 5.41793 13.658 5.30325 13.853 5.26443C14.048 5.22561 14.2505 5.26583 14.4158 5.37625Z" fill="black"/>
</svg>
