<svg width="12" height="11" viewBox="0 0 12 11" fill="none" xmlns="http://www.w3.org/2000/svg">
<path d="M2.27991 0.219846C2.13773 0.0873663 1.94969 0.0152433 1.75539 0.0186715C1.56109 0.0220998 1.3757 0.100812 1.23829 0.238225C1.10087 0.375638 1.02216 0.561023 1.01873 0.755324C1.01531 0.949625 1.08743 1.13767 1.21991 1.27985L4.93991 4.99985L1.21991 8.71985C1.14622 8.78851 1.08712 8.87131 1.04613 8.96331C1.00514 9.05531 0.983095 9.15462 0.981318 9.25532C0.979541 9.35603 0.998066 9.45606 1.03579 9.54944C1.07351 9.64283 1.12965 9.72767 1.20087 9.79888C1.27209 9.8701 1.35692 9.92625 1.45031 9.96397C1.5437 10.0017 1.64373 10.0202 1.74443 10.0184C1.84513 10.0167 1.94445 9.99462 2.03645 9.95363C2.12845 9.91264 2.21125 9.85353 2.27991 9.77985L5.99991 6.05985L9.71991 9.77985C9.78857 9.85353 9.87137 9.91264 9.96337 9.95363C10.0554 9.99462 10.1547 10.0167 10.2554 10.0184C10.3561 10.0202 10.4561 10.0017 10.5495 9.96397C10.6429 9.92625 10.7277 9.8701 10.7989 9.79888C10.8702 9.72767 10.9263 9.64283 10.964 9.54944C11.0018 9.45606 11.0203 9.35603 11.0185 9.25532C11.0167 9.15462 10.9947 9.05531 10.9537 8.96331C10.9127 8.87131 10.8536 8.78851 10.7799 8.71985L7.05991 4.99985L10.7799 1.27985C10.9124 1.13767 10.9845 0.949625 10.9811 0.755324C10.9777 0.561023 10.8989 0.375638 10.7615 0.238225C10.6241 0.100812 10.4387 0.0220998 10.2444 0.0186715C10.0501 0.0152433 9.86208 0.0873663 9.71991 0.219846L5.99991 3.93985L2.27991 0.219846Z" fill="black"/>
</svg>
