<svg width="20" height="20" viewBox="0 0 20 20" fill="none" xmlns="http://www.w3.org/2000/svg">
<path fill-rule="evenodd" clip-rule="evenodd" d="M10 1.75C7.81196 1.75 5.71354 2.61919 4.16637 4.16637C2.61919 5.71354 1.75 7.81196 1.75 10C1.75 11.0834 1.96339 12.1562 2.37799 13.1571C2.79259 14.1581 3.40029 15.0675 4.16637 15.8336C4.93245 16.5997 5.84193 17.2074 6.84286 17.622C7.8438 18.0366 8.91659 18.25 10 18.25C11.0834 18.25 12.1562 18.0366 13.1571 17.622C14.1581 17.2074 15.0675 16.5997 15.8336 15.8336C16.5997 15.0675 17.2074 14.1581 17.622 13.1571C18.0366 12.1562 18.25 11.0834 18.25 10C18.25 7.81196 17.3808 5.71354 15.8336 4.16637C14.2865 2.61919 12.188 1.75 10 1.75ZM3.10571 3.10571C4.93419 1.27723 7.41414 0.25 10 0.25C12.5859 0.25 15.0658 1.27723 16.8943 3.10571C18.7228 4.93419 19.75 7.41414 19.75 10C19.75 11.2804 19.4978 12.5482 19.0078 13.7312C18.5178 14.9141 17.7997 15.9889 16.8943 16.8943C15.9889 17.7997 14.9141 18.5178 13.7312 19.0078C12.5482 19.4978 11.2804 19.75 10 19.75C8.71961 19.75 7.45176 19.4978 6.26884 19.0078C5.08591 18.5178 4.01108 17.7997 3.10571 16.8943C2.20034 15.9889 1.48216 14.9141 0.992174 13.7312C0.502191 12.5482 0.25 11.2804 0.25 10C0.25 7.41414 1.27723 4.93419 3.10571 3.10571ZM12.6147 4.95445C11.1609 3.68211 8.83874 3.68218 7.38502 4.95466C7.07334 5.22748 7.04184 5.7013 7.31466 6.01298C7.58747 6.32466 8.0613 6.35616 8.37298 6.08334C9.26118 5.30589 10.7388 5.30589 11.627 6.08334L11.6273 6.08355C12.4576 6.80973 12.4576 7.94027 11.6273 8.66645L11.625 8.66846C11.4771 8.7988 11.3082 8.909 11.1246 8.99774L11.124 8.99806C10.3093 9.39282 9.251 10.2218 9.251 11.5V12.25C9.251 12.6642 9.58679 13 10.001 13C10.4152 13 10.751 12.6642 10.751 12.25V11.5C10.751 11.1222 11.1027 10.6752 11.778 10.3479C12.0737 10.205 12.3581 10.0216 12.6158 9.79465C14.1284 8.47073 14.1281 6.27797 12.6147 4.95445ZM9.25 15.25C9.25 14.8358 9.58579 14.5 10 14.5H10.008C10.4222 14.5 10.758 14.8358 10.758 15.25V15.258C10.758 15.6722 10.4222 16.008 10.008 16.008H10C9.58579 16.008 9.25 15.6722 9.25 15.258V15.25Z" fill="black"/>
</svg>
