<svg width="24" height="25" viewBox="0 0 24 25" fill="none" xmlns="http://www.w3.org/2000/svg">
<path fill-rule="evenodd" clip-rule="evenodd" d="M12 4.11816C9.81196 4.11816 7.71354 4.98736 6.16637 6.53453C4.61919 8.08171 3.75 10.1801 3.75 12.3682C3.75 13.4516 3.96339 14.5244 4.37799 15.5253C4.79259 16.5262 5.40029 17.4357 6.16637 18.2018C6.93245 18.9679 7.84193 19.5756 8.84286 19.9902C9.8438 20.4048 10.9166 20.6182 12 20.6182C13.0834 20.6182 14.1562 20.4048 15.1571 19.9902C16.1581 19.5756 17.0675 18.9679 17.8336 18.2018C18.5997 17.4357 19.2074 16.5262 19.622 15.5253C20.0366 14.5244 20.25 13.4516 20.25 12.3682C20.25 10.1801 19.3808 8.08171 17.8336 6.53453C16.2865 4.98736 14.188 4.11816 12 4.11816ZM5.10571 5.47387C6.93419 3.64539 9.41414 2.61816 12 2.61816C14.5859 2.61816 17.0658 3.64539 18.8943 5.47387C20.7228 7.30235 21.75 9.7823 21.75 12.3682C21.75 13.6486 21.4978 14.9164 21.0078 16.0993C20.5178 17.2823 19.7997 18.3571 18.8943 19.2625C17.9889 20.1678 16.9141 20.886 15.7312 21.376C14.5482 21.866 13.2804 22.1182 12 22.1182C10.7196 22.1182 9.45176 21.866 8.26884 21.376C7.08591 20.886 6.01108 20.1678 5.10571 19.2625C4.20034 18.3571 3.48216 17.2823 2.99217 16.0993C2.50219 14.9164 2.25 13.6486 2.25 12.3682C2.25 9.7823 3.27723 7.30235 5.10571 5.47387ZM14.6147 7.32261C13.1609 6.05028 10.8387 6.05035 9.38502 7.32282C9.07334 7.59564 9.04184 8.06947 9.31466 8.38115C9.58747 8.69282 10.0613 8.72433 10.373 8.45151C11.2612 7.67405 12.7388 7.67405 13.627 8.45151L13.6273 8.45172C14.4576 9.17789 14.4576 10.3084 13.6273 11.0346L13.625 11.0366C13.4771 11.167 13.3082 11.2772 13.1246 11.3659L13.124 11.3662C12.3093 11.761 11.251 12.59 11.251 13.8682V14.6182C11.251 15.0324 11.5868 15.3682 12.001 15.3682C12.4152 15.3682 12.751 15.0324 12.751 14.6182V13.8682C12.751 13.4904 13.1027 13.0433 13.778 12.7161C14.0737 12.5731 14.3581 12.3898 14.6158 12.1628C16.1284 10.8389 16.1281 8.64613 14.6147 7.32261ZM11.25 17.6182C11.25 17.204 11.5858 16.8682 12 16.8682H12.008C12.4222 16.8682 12.758 17.204 12.758 17.6182V17.6262C12.758 18.0404 12.4222 18.3762 12.008 18.3762H12C11.5858 18.3762 11.25 18.0404 11.25 17.6262V17.6182Z" fill="black"/>
</svg>
