<svg width="28" height="28" viewBox="0 0 28 28" fill="none" xmlns="http://www.w3.org/2000/svg">
<path d="M18.6227 20.263H20.0496C23.9898 20.263 27.1841 17.3882 27.1841 13.842C27.1841 10.7352 24.7324 8.14365 21.4751 7.5492C21.4751 4.00298 18.6227 1 14.342 1C10.0614 1 7.20895 4.00298 7.20895 7.5492C3.95176 8.14365 1.5 10.7352 1.5 13.842C1.5 17.3882 4.69421 20.263 8.63446 20.263H10.0614M11.4882 26.684H14.342M14.342 26.684H17.1958M14.342 26.684V17.6946M14.342 17.6946L17.9093 14.4841M14.342 17.6946V15.1262M14.342 15.1262V9.98942M14.342 15.1262L10.7748 11.9157" stroke="#9CA3AF" stroke-width="1.60525" stroke-linecap="square"/>
</svg>
