<svg width="22" height="22" viewBox="0 0 22 22" fill="none" xmlns="http://www.w3.org/2000/svg">
<path d="M16.052 10.132L15.3414 9.89197L15.3414 9.89206L16.052 10.132ZM17.0011 9.3289L17.312 10.0114L17.312 10.0114L17.0011 9.3289ZM17.8968 9.0042L17.8363 8.25664L17.8363 8.25664L17.8968 9.0042ZM18.618 9.1593L18.251 9.81335L18.2511 9.8134L18.618 9.1593ZM19.3079 9.873L19.8869 9.39628L19.8869 9.39624L19.3079 9.873ZM20.8955 12.2236L20.172 12.4212L20.172 12.4213L20.8955 12.2236ZM20.8955 13.7764L20.172 13.5787L20.172 13.5788L20.8955 13.7764ZM19.2598 16.1854L18.6808 15.7087L18.6808 15.7087L19.2598 16.1854ZM18.618 16.8407L18.985 17.4948L18.9851 17.4947L18.618 16.8407ZM17.8968 16.9958L17.8363 17.7434L17.8364 17.7434L17.8968 16.9958ZM17.0011 16.6711L17.312 15.9886L17.312 15.9886L17.0011 16.6711ZM16.052 15.868L15.3414 16.1079L15.3414 16.108L16.052 15.868ZM5.63591 9.6722L5.14374 10.2381L5.14375 10.2381L5.63591 9.6722ZM4.99891 9.329L5.30985 8.64649L5.30971 8.64643L4.99891 9.329ZM4.10316 9.0044L4.16366 8.25684L4.16366 8.25684L4.10316 9.0044ZM2.69213 9.8732L3.27113 10.3499L3.27116 10.3499L2.69213 9.8732ZM1.10446 12.2237L0.380972 12.0261L0.380965 12.0261L1.10446 12.2237ZM1.10446 13.7766L1.82795 13.579L1.82795 13.5789L1.10446 13.7766ZM2.74021 16.1856L2.16118 16.6623L2.16121 16.6623L2.74021 16.1856ZM4.10316 16.996L4.16356 17.7436L4.16366 17.7436L4.10316 16.996ZM4.99891 16.6713L5.30971 17.3539L5.30985 17.3538L4.99891 16.6713ZM5.63591 16.3281L5.14375 15.7622L5.14374 15.7622L5.63591 16.3281ZM18.25 9.5C18.25 9.91421 18.5858 10.25 19 10.25C19.4142 10.25 19.75 9.91421 19.75 9.5H18.25ZM2.25 9.5C2.25 9.91421 2.58579 10.25 3 10.25C3.41421 10.25 3.75 9.91421 3.75 9.5H2.25ZM19.75 16.5C19.75 16.0858 19.4142 15.75 19 15.75C18.5858 15.75 18.25 16.0858 18.25 16.5H19.75ZM11 20.25C10.5858 20.25 10.25 20.5858 10.25 21C10.25 21.4142 10.5858 21.75 11 21.75V20.25ZM16.75 10.8045C16.75 10.6227 16.7503 10.5198 16.7551 10.4424C16.7593 10.3739 16.7653 10.3638 16.7626 10.3719L15.3414 9.89206C15.2406 10.1905 15.25 10.5114 15.25 10.8045H16.75ZM16.7626 10.372C16.7774 10.3279 16.8006 10.291 16.8736 10.2381C16.9688 10.1691 17.0922 10.1116 17.312 10.0114L16.6902 8.64638C16.358 8.7977 15.6138 9.08557 15.3414 9.89197L16.7626 10.372ZM17.312 10.0114C17.8152 9.7822 17.8977 9.75658 17.9573 9.75176L17.8363 8.25664C17.4511 8.28782 17.0848 8.46661 16.6902 8.64639L17.312 10.0114ZM17.9573 9.75176C18.0648 9.74306 18.1684 9.76699 18.251 9.81335L18.985 8.50525C18.636 8.30941 18.2338 8.2245 17.8363 8.25664L17.9573 9.75176ZM18.2511 9.8134C18.2861 9.83309 18.3416 9.87687 18.4286 9.97653C18.5419 10.1063 18.5779 10.1663 18.7289 10.3498L19.8869 9.39624C19.8336 9.33156 19.6677 9.11505 19.5586 8.99007C19.4233 8.83503 19.236 8.64601 18.9849 8.5052L18.2511 9.8134ZM18.7289 10.3497C19.2077 10.9313 19.5402 11.3359 19.7776 11.6729C20.0097 12.0025 20.1178 12.2226 20.172 12.4212L21.619 12.026C21.5007 11.5928 21.2866 11.2105 21.0039 10.8092C20.7265 10.4153 20.3515 9.96053 19.8869 9.39628L18.7289 10.3497ZM20.172 12.4213C20.276 12.8017 20.276 13.1983 20.172 13.5787L21.619 13.9741C21.7936 13.3349 21.7936 12.6651 21.619 12.0259L20.172 12.4213ZM20.172 13.5788C20.0834 13.9033 19.8882 14.2364 19.6081 14.603C19.3072 14.9967 19.0229 15.2932 18.6808 15.7087L19.8388 16.6621C20.0854 16.3626 20.4931 15.9154 20.8 15.5137C21.1276 15.0849 21.4559 14.571 21.619 13.974L20.172 13.5788ZM18.6808 15.7087C18.3399 16.1227 18.2889 16.1654 18.2509 16.1867L18.9851 17.4947C19.3273 17.3026 19.5775 16.9795 19.8388 16.6621L18.6808 15.7087ZM18.251 16.1866C18.1684 16.233 18.0648 16.2569 17.9572 16.2482L17.8364 17.7434C18.2338 17.7755 18.636 17.6906 18.985 17.4948L18.251 16.1866ZM17.9573 16.2482C17.8977 16.2434 17.8152 16.2178 17.312 15.9886L16.6902 17.3536C17.0848 17.5334 17.4511 17.7122 17.8363 17.7434L17.9573 16.2482ZM17.312 15.9886C17.0922 15.8884 16.9688 15.8309 16.8736 15.7619C16.8006 15.709 16.7774 15.6721 16.7626 15.628L15.3414 16.108C15.6138 16.9144 16.358 17.2023 16.6902 17.3536L17.312 15.9886ZM16.7626 15.6281C16.7653 15.6362 16.7593 15.6261 16.7551 15.5576C16.7503 15.4802 16.75 15.3773 16.75 15.1955H15.25C15.25 15.4885 15.2406 15.8095 15.3414 16.1079L16.7626 15.6281ZM16.75 15.1955V10.8045H15.25V15.1955H16.75ZM6.75 10.8046C6.75 10.3962 6.76538 9.6605 6.12807 9.10627L5.14375 10.2381C5.18852 10.2771 5.20683 10.3093 5.22179 10.3698C5.24383 10.459 5.25 10.5776 5.25 10.8046H6.75ZM6.12808 9.10627C5.89802 8.9062 5.60493 8.78093 5.30985 8.64649L4.68797 10.0115C5.07157 10.1863 5.11784 10.2156 5.14374 10.2381L6.12808 9.10627ZM5.30971 8.64643C4.91511 8.46675 4.54877 8.28801 4.16366 8.25684L4.04266 9.75196C4.10235 9.75679 4.18491 9.78245 4.68811 10.0116L5.30971 8.64643ZM4.16366 8.25684C3.04519 8.16633 2.44241 8.99652 2.1131 9.39651L3.27116 10.3499C3.48201 10.0938 3.6074 9.94376 3.741 9.84381C3.83965 9.77002 3.91872 9.74193 4.04266 9.75196L4.16366 8.25684ZM2.11313 9.39649C1.64859 9.96071 1.27354 10.4155 0.99611 10.8093C0.713451 11.2105 0.499321 11.5928 0.380972 12.0261L1.82795 12.4213C1.8822 12.2228 1.99021 12.0027 2.22239 11.6731C2.45981 11.3361 2.79229 10.9315 3.27113 10.3499L2.11313 9.39649ZM0.380965 12.0261C0.206348 12.6653 0.206338 13.335 0.380975 13.9743L1.82795 13.5789C1.72402 13.1986 1.72401 12.8019 1.82795 12.4213L0.380965 12.0261ZM0.380971 13.9742C0.544067 14.5713 0.872399 15.0851 1.20005 15.5139C1.50687 15.9154 1.9147 16.3629 2.16118 16.6623L3.31924 15.7089C2.97703 15.2932 2.69286 14.997 2.39191 14.6031C2.11179 14.2366 1.91659 13.9034 1.82795 13.579L0.380971 13.9742ZM2.16121 16.6623C2.5011 17.0751 3.08958 17.8303 4.16356 17.7436L4.04276 16.2484C3.9215 16.2582 3.84598 16.2316 3.75654 16.168C3.63577 16.0821 3.51419 15.9457 3.31921 15.7089L2.16121 16.6623ZM4.16366 17.7436C4.54883 17.7124 4.91534 17.5334 5.30971 17.3539L4.68811 15.9887C4.18468 16.218 4.10229 16.2436 4.04266 16.2484L4.16366 17.7436ZM5.30985 17.3538C5.60494 17.2194 5.89802 17.0941 6.12808 16.894L5.14374 15.7622C5.11784 15.7847 5.07156 15.814 4.68797 15.9888L5.30985 17.3538ZM6.12807 16.894C6.76537 16.3398 6.75 15.6042 6.75 15.1957H5.25C5.25 15.4228 5.24383 15.5413 5.22179 15.6305C5.20685 15.691 5.18854 15.7232 5.14375 15.7622L6.12807 16.894ZM6.75 15.1957V10.8046H5.25V15.1957H6.75ZM19.75 9.5V8H18.25V9.5H19.75ZM19.75 8C19.75 3.62886 15.7353 0.25 11 0.25V1.75C15.1013 1.75 18.25 4.63916 18.25 8H19.75ZM11 0.25C6.26471 0.25 2.25 3.62886 2.25 8H3.75C3.75 4.63916 6.89873 1.75 11 1.75V0.25ZM2.25 8V9.5H3.75V8H2.25ZM18.25 16.5C18.25 17.5134 18.0258 18.1974 17.6956 18.6751C17.3661 19.1516 16.8825 19.4931 16.2367 19.7353C14.8915 20.2397 13.0467 20.25 11 20.25V21.75C12.9533 21.75 15.1085 21.7603 16.7633 21.1397C17.6175 20.8194 18.3839 20.3171 18.9294 19.5281C19.4742 18.7401 19.75 17.7366 19.75 16.5H18.25Z" fill="black"/>
</svg>
