<svg width="12" height="11" viewBox="0 0 12 11" fill="none" xmlns="http://www.w3.org/2000/svg">
<path d="M2.73483 4.875C2.37983 4.875 2.01983 4.745 1.74483 4.48C0.824833 3.605 0.454833 2.65 0.669833 1.715C0.924833 0.615 1.88983 0.125 2.73483 0.125C3.57983 0.125 4.54983 0.62 4.79983 1.715C5.01483 2.65 4.63983 3.605 3.72483 4.48C3.44983 4.745 3.09483 4.875 2.73483 4.875ZM1.39983 1.885C1.20983 2.72 1.76483 3.46 2.26483 3.935C2.52983 4.19 2.94483 4.185 3.20983 3.935C3.70983 3.46 4.26483 2.72 4.06983 1.88C3.89983 1.14 3.24483 0.875 2.73983 0.875C2.22983 0.875 1.57483 1.14 1.39983 1.885Z" fill="#171717"/>
<path d="M2.75481 2.59999C2.47981 2.59999 2.25481 2.37499 2.25481 2.09999C2.25481 1.82498 2.47481 1.59999 2.75481 1.59999H2.75981C3.03481 1.59999 3.25981 1.82498 3.25981 2.09999C3.25981 2.37499 3.03481 2.59999 2.75481 2.59999Z" fill="#171717"/>
<path d="M9.24469 10.875C8.88969 10.875 8.52969 10.745 8.24969 10.48C7.32469 9.60501 6.94969 8.65001 7.16969 7.71001C7.42469 6.61501 8.39469 6.12001 9.24469 6.12001C10.0947 6.12001 11.0647 6.61501 11.3197 7.71001C11.5347 8.64501 11.1597 9.60501 10.2347 10.475C9.95969 10.745 9.60469 10.875 9.24469 10.875ZM9.24469 6.87501C8.73469 6.87501 8.07469 7.14001 7.89969 7.88501C7.70469 8.72001 8.26469 9.46501 8.76469 9.94001C9.02969 10.195 9.44969 10.195 9.71969 9.94001C10.2197 9.46501 10.7797 8.72501 10.5847 7.89001C10.4197 7.14001 9.75969 6.87501 9.24469 6.87501Z" fill="#171717"/>
<path d="M9.2648 8.59999C8.9898 8.59999 8.7648 8.37499 8.7648 8.09999C8.7648 7.82499 8.9848 7.59999 9.2648 7.59999H9.2698C9.5448 7.59999 9.7698 7.82499 9.7698 8.09999C9.7698 8.37499 9.5398 8.59999 9.2648 8.59999Z" fill="#171717"/>
<path d="M5.9998 9.375H4.6598C4.0798 9.375 3.5748 9.025 3.3748 8.485C3.1698 7.945 3.3198 7.35 3.7548 6.965L7.7498 3.47C7.9898 3.26 7.9948 2.975 7.9248 2.78C7.8498 2.585 7.6598 2.375 7.3398 2.375H5.9998C5.7948 2.375 5.6248 2.205 5.6248 2C5.6248 1.795 5.7948 1.625 5.9998 1.625H7.3398C7.9198 1.625 8.4248 1.975 8.6248 2.515C8.8298 3.055 8.6798 3.65 8.2448 4.035L4.2498 7.53C4.0098 7.74 4.0048 8.025 4.0748 8.22C4.1498 8.415 4.3398 8.625 4.6598 8.625H5.9998C6.2048 8.625 6.3748 8.795 6.3748 9C6.3748 9.205 6.2048 9.375 5.9998 9.375Z" fill="#171717"/>
<path d="M5.9998 9.375H4.6598C4.0798 9.375 3.5748 9.025 3.3748 8.485C3.1698 7.945 3.3198 7.35 3.7548 6.965L7.7498 3.47C7.9898 3.26 7.9948 2.975 7.9248 2.78C7.8498 2.585 7.6598 2.375 7.3398 2.375H5.9998C5.7948 2.375 5.6248 2.205 5.6248 2C5.6248 1.795 5.7948 1.625 5.9998 1.625H7.3398C7.9198 1.625 8.4248 1.975 8.6248 2.515C8.8298 3.055 8.6798 3.65 8.2448 4.035L4.2498 7.53C4.0098 7.74 4.0048 8.025 4.0748 8.22C4.1498 8.415 4.3398 8.625 4.6598 8.625H5.9998C6.2048 8.625 6.3748 8.795 6.3748 9C6.3748 9.205 6.2048 9.375 5.9998 9.375Z" fill="#171717"/>
</svg>
