<svg width="109" height="39" viewBox="0 0 109 39" fill="none" xmlns="http://www.w3.org/2000/svg">
<g clip-path="url(#clip0_178_2793)">
<path d="M6.36743 20.9547V32.7205L6.10182 32.9861H0.0861433L0 0.0721433C4.61585 0.323395 9.66959 -0.344216 14.2208 0.273144C21.8445 1.30686 25.0821 8.9808 21.8589 15.6569C18.9228 21.73 12.0601 21.0983 6.36743 20.9547ZM6.36743 15.4631H11.2345C11.7514 15.4631 13.0507 15.1688 13.6178 15.018C17.4656 13.9843 18.0901 8.39933 14.6874 6.51853C14.2424 6.26728 12.5626 5.72889 12.1103 5.72889H6.36025V15.4631H6.36743Z" fill="#F78E2F"/>
<path d="M103.336 32.9858V31.751C101.635 32.555 99.8617 33.3806 97.945 33.5242C87.9954 34.2851 81.628 23.4238 86.5597 14.8813C89.9695 8.98049 97.4425 7.07098 103.25 10.689L103.336 9.27481H109L108.821 32.9858H103.336ZM101.154 26.5537C107.729 20.8539 99.8329 10.4808 93.0922 15.5705C85.6336 21.2057 94.3844 32.4186 101.154 26.5537Z" fill="#F78E2F"/>
<path d="M40.5229 32.9855V31.7508C39.5825 32.0523 38.8718 32.6194 37.9098 32.9353C31.4276 35.0745 24.3136 31.2626 22.5261 24.7086C19.5613 13.8114 30.7312 4.83817 40.5229 10.6887V9.27455H46.0073V32.9855H40.5229ZM38.5128 26.374C45.2105 20.2291 35.8496 9.73398 29.4391 16.2378C23.3947 22.3683 32.1095 32.2605 38.5128 26.374Z" fill="#F78E2F"/>
<path d="M58.2184 0.0717904V5.64239L57.9241 5.87929C55.7992 5.77878 54.1122 6.99915 54.4999 9.26759H58.2184V14.5726H54.4999V32.8852L48.8359 38.6353V7.23604C48.8359 7.08529 49.1949 5.8075 49.281 5.55625C50.5588 1.89516 54.4927 4.29153e-06 58.2184 0.0717904Z" fill="#F78E2F"/>
<path d="M74.8514 0.0717773V32.9857H69.4531L69.1875 32.7201V0.0717773H74.8514Z" fill="#F78E2F"/>
<path d="M83.3436 9.2749V32.9858H77.9453L77.6797 32.7202V9.2749H83.3436Z" fill="#F78E2F"/>
<path d="M66.3516 9.2749H60.8672V32.9858H66.3516V9.2749Z" fill="#F78E2F"/>
<path d="M83.3438 0.0717773L77.8594 5.7357V0.0717773H83.3438Z" fill="#F78E2F"/>
</g>
<defs>
<clipPath id="clip0_178_2793">
<rect width="109" height="38.6425" fill="white"/>
</clipPath>
</defs>
</svg>
