<svg width="20" height="20" viewBox="0 0 20 20" fill="none" xmlns="http://www.w3.org/2000/svg">
<path fill-rule="evenodd" clip-rule="evenodd" d="M10 1.75C7.81196 1.75 5.71354 2.61919 4.16637 4.16637C2.61919 5.71354 1.75 7.81196 1.75 10C1.75 11.0834 1.96339 12.1562 2.37799 13.1571C2.79259 14.1581 3.40029 15.0675 4.16637 15.8336C4.93245 16.5997 5.84193 17.2074 6.84286 17.622C7.8438 18.0366 8.91659 18.25 10 18.25C11.0834 18.25 12.1562 18.0366 13.1571 17.622C14.1581 17.2074 15.0675 16.5997 15.8336 15.8336C16.5997 15.0675 17.2074 14.1581 17.622 13.1571C18.0366 12.1562 18.25 11.0834 18.25 10C18.25 7.81196 17.3808 5.71354 15.8336 4.16637C14.2865 2.61919 12.188 1.75 10 1.75ZM3.10571 3.10571C4.93419 1.27723 7.41414 0.25 10 0.25C12.5859 0.25 15.0658 1.27723 16.8943 3.10571C18.7228 4.93419 19.75 7.41414 19.75 10C19.75 11.2804 19.4978 12.5482 19.0078 13.7312C18.5178 14.9141 17.7997 15.9889 16.8943 16.8943C15.9889 17.7997 14.9141 18.5178 13.7312 19.0078C12.5482 19.4978 11.2804 19.75 10 19.75C8.71961 19.75 7.45176 19.4978 6.26884 19.0078C5.08591 18.5178 4.01108 17.7997 3.10571 16.8943C2.20034 15.9889 1.48216 14.9141 0.992174 13.7312C0.502191 12.5482 0.25 11.2804 0.25 10C0.25 7.41414 1.27723 4.93419 3.10571 3.10571ZM7.21967 7.21967C7.51256 6.92678 7.98744 6.92678 8.28033 7.21967L10 8.93934L11.7197 7.21967C12.0126 6.92678 12.4874 6.92678 12.7803 7.21967C13.0732 7.51256 13.0732 7.98744 12.7803 8.28033L11.0607 10L12.7803 11.7197C13.0732 12.0126 13.0732 12.4874 12.7803 12.7803C12.4874 13.0732 12.0126 13.0732 11.7197 12.7803L10 11.0607L8.28033 12.7803C7.98744 13.0732 7.51256 13.0732 7.21967 12.7803C6.92678 12.4874 6.92678 12.0126 7.21967 11.7197L8.93934 10L7.21967 8.28033C6.92678 7.98744 6.92678 7.51256 7.21967 7.21967Z" fill="black"/>
</svg>
