<svg width="21" height="21" viewBox="0 0 21 21" fill="none" xmlns="http://www.w3.org/2000/svg">
<path d="M15.997 14.5254C17.248 14.5276 18.4867 14.2798 19.6406 13.7966L19.6519 13.7919L19.6629 13.7866C19.7096 13.7643 19.7619 13.7571 19.8129 13.7658C19.8639 13.7745 19.9109 13.7989 19.9474 13.8354C19.9841 13.8721 20.0084 13.9191 20.0171 13.9699C20.0258 14.0208 20.0186 14.0732 19.9963 14.1199L19.9911 14.1309L19.9864 14.142C19.22 15.9692 17.9267 17.5266 16.2713 18.6155C14.616 19.7043 12.6737 20.2753 10.6925 20.2554L10.6895 20.2554C8.38184 20.2458 6.14853 19.4383 4.36826 17.97C2.588 16.5016 1.37035 14.4626 0.921869 12.1989C0.473389 9.9352 0.821679 7.58607 1.90762 5.54982C2.99356 3.51359 4.7503 1.9156 6.88 1.02686L6.89159 1.02202L6.90293 1.01661C6.9496 0.994316 7.00204 0.987048 7.05297 0.995785C7.10387 1.00452 7.15088 1.02884 7.18747 1.06543C7.22401 1.10198 7.24834 1.14897 7.25708 1.19993C7.26582 1.25085 7.25856 1.30326 7.23626 1.34994L7.23077 1.36144L7.22587 1.3732C6.62461 2.81698 6.38911 4.38684 6.54025 5.94349C6.69139 7.50013 7.2245 8.99539 8.09227 10.2965C8.96005 11.5977 10.1357 12.6644 11.5147 13.4021C12.8936 14.1398 14.4332 14.5256 15.997 14.5254ZM15.997 14.5254C15.9969 14.5254 15.9967 14.5254 15.9965 14.5254L15.9974 14.0254L15.9975 14.5254C15.9974 14.5254 15.9972 14.5254 15.997 14.5254ZM6.18744 2.75543V1.81927L5.40939 2.33987C3.71632 3.47272 2.43226 5.11981 1.74664 7.03807C1.06102 8.95634 1.01019 11.0442 1.60162 12.9935C2.19305 14.9429 3.39542 16.6506 5.03134 17.8645C6.66726 19.0784 8.65006 19.7343 10.6872 19.7354H10.6876C12.2493 19.7348 13.7868 19.3493 15.164 18.6128C16.5412 17.8764 17.7155 16.8117 18.5832 15.5132L19.2744 14.4786L18.0595 14.7472C17.3694 14.8998 16.6648 14.9763 15.9581 14.9754H15.9579C13.3064 14.9729 10.7642 13.9185 8.88933 12.0436C7.01442 10.1687 5.95998 7.62647 5.95746 4.97495L5.95746 4.97403C5.9555 4.27027 6.02886 3.56832 6.17634 2.8802L6.18744 2.8284V2.77542V2.75543Z" fill="black" stroke="white"/>
</svg>
