<svg width="16" height="16" viewBox="0 0 16 16" fill="none" xmlns="http://www.w3.org/2000/svg">
<path fill-rule="evenodd" clip-rule="evenodd" d="M8.00012 3.59996C8.97212 3.59996 9.93372 3.64396 10.8833 3.72956C11.0077 3.74062 11.1245 3.79412 11.214 3.88109C11.3036 3.96805 11.3606 4.08318 11.3753 4.20716C11.4745 5.03756 11.5417 5.87756 11.5753 6.72716L10.2241 5.37516C10.1109 5.26592 9.95932 5.20551 9.802 5.20695C9.64468 5.20839 9.49423 5.27157 9.38303 5.38286C9.27184 5.49416 9.20881 5.64468 9.20752 5.802C9.20622 5.95932 9.26677 6.11085 9.37612 6.22396L11.7753 8.62396C11.8878 8.73632 12.0403 8.79943 12.1993 8.79943C12.3583 8.79943 12.5108 8.73632 12.6233 8.62396L15.0241 6.22396C15.0831 6.16903 15.1304 6.10279 15.1631 6.02919C15.1959 5.95559 15.2136 5.87614 15.215 5.79558C15.2164 5.71502 15.2016 5.63499 15.1714 5.56028C15.1412 5.48557 15.0963 5.41771 15.0394 5.36073C14.9824 5.30376 14.9145 5.25884 14.8398 5.22866C14.7651 5.19849 14.6851 5.18367 14.6045 5.18509C14.5239 5.18651 14.4445 5.20414 14.3709 5.23694C14.2973 5.26973 14.2311 5.31701 14.1761 5.37596L12.7777 6.77356C12.7445 5.86811 12.674 4.96442 12.5665 4.06476C12.5191 3.66763 12.3367 3.29886 12.0498 3.02023C11.7628 2.74161 11.3889 2.57007 10.9905 2.53436C9.00072 2.35443 6.99873 2.35443 5.00892 2.53436C4.61072 2.57025 4.23693 2.74186 3.95017 3.02047C3.66341 3.29908 3.48108 3.66776 3.43372 4.06476C3.38262 4.49321 3.33995 4.92263 3.30572 5.35276C3.29809 5.43199 3.30629 5.51196 3.32986 5.58799C3.35343 5.66402 3.3919 5.7346 3.44301 5.79562C3.49413 5.85664 3.55687 5.90687 3.6276 5.94341C3.69832 5.97994 3.7756 6.00203 3.85495 6.0084C3.93429 6.01477 4.01411 6.00528 4.08976 5.9805C4.1654 5.95572 4.23536 5.91613 4.29555 5.86405C4.35575 5.81196 4.40498 5.74842 4.44037 5.67712C4.47577 5.60583 4.49662 5.5282 4.50172 5.44876C4.53452 5.03276 4.57612 4.61836 4.62492 4.20716C4.63967 4.08318 4.69662 3.96805 4.7862 3.88109C4.87579 3.79412 4.99256 3.74062 5.11692 3.72956C6.07555 3.64303 7.0376 3.59979 8.00012 3.59996ZM4.22492 7.37596C4.11242 7.2636 3.95992 7.20049 3.80092 7.20049C3.64192 7.20049 3.48942 7.2636 3.37692 7.37596L0.976123 9.77596C0.917173 9.83089 0.869892 9.89713 0.837098 9.97073C0.804305 10.0443 0.786671 10.1238 0.78525 10.2043C0.783828 10.2849 0.798648 10.3649 0.828825 10.4396C0.859002 10.5143 0.903917 10.5822 0.960892 10.6392C1.01787 10.6962 1.08573 10.7411 1.16044 10.7713C1.23516 10.8014 1.31518 10.8163 1.39574 10.8148C1.4763 10.8134 1.55575 10.7958 1.62935 10.763C1.70295 10.7302 1.76919 10.6829 1.82412 10.624L3.22252 9.22636C3.25612 10.1392 3.32652 11.0424 3.43372 11.9352C3.48111 12.3323 3.66355 12.7011 3.95048 12.9797C4.2374 13.2583 4.61137 13.4299 5.00972 13.4656C6.99953 13.6454 9.00151 13.6454 10.9913 13.4656C11.3895 13.4297 11.7633 13.2581 12.0501 12.9795C12.3368 12.7008 12.5192 12.3322 12.5665 11.9352C12.6177 11.508 12.6601 11.0784 12.6945 10.6472C12.7022 10.5679 12.694 10.488 12.6704 10.4119C12.6468 10.3359 12.6083 10.2653 12.5572 10.2043C12.5061 10.1433 12.4434 10.093 12.3726 10.0565C12.3019 10.02 12.2246 9.99789 12.1453 9.99152C12.066 9.98516 11.9861 9.99464 11.9105 10.0194C11.8348 10.0442 11.7649 10.0838 11.7047 10.1359C11.6445 10.188 11.5953 10.2515 11.5599 10.3228C11.5245 10.3941 11.5036 10.4717 11.4985 10.5512C11.4657 10.9672 11.4241 11.3808 11.3753 11.7928C11.3606 11.9167 11.3036 12.0319 11.214 12.1188C11.1245 12.2058 11.0077 12.2593 10.8833 12.2704C8.9651 12.4438 7.03514 12.4438 5.11692 12.2704C4.99256 12.2593 4.87579 12.2058 4.7862 12.1188C4.69662 12.0319 4.63967 11.9167 4.62492 11.7928C4.52491 10.9557 4.45819 10.1151 4.42492 9.27276L5.77612 10.6248C5.88934 10.734 6.04093 10.7944 6.19824 10.793C6.35556 10.7915 6.50602 10.7284 6.61721 10.6171C6.72841 10.5058 6.79144 10.3552 6.79273 10.1979C6.79402 10.0406 6.73347 9.88907 6.62412 9.77596L4.22492 7.37596Z" fill="black"/>
</svg>
