<svg width="16" height="12" viewBox="0 0 16 12" fill="none" xmlns="http://www.w3.org/2000/svg">
<path fill-rule="evenodd" clip-rule="evenodd" d="M8 1.59996C8.972 1.59996 9.9336 1.64396 10.8832 1.72956C11.0076 1.74062 11.1243 1.79412 11.2139 1.88109C11.3035 1.96805 11.3605 2.08318 11.3752 2.20716C11.4744 3.03756 11.5416 3.87756 11.5752 4.72716L10.224 3.37516C10.1108 3.26592 9.9592 3.20551 9.80188 3.20695C9.64456 3.20839 9.4941 3.27157 9.38291 3.38286C9.27172 3.49416 9.20869 3.64468 9.20739 3.802C9.2061 3.95932 9.26665 4.11085 9.376 4.22396L11.7752 6.62396C11.8877 6.73632 12.0402 6.79943 12.1992 6.79943C12.3582 6.79943 12.5107 6.73632 12.6232 6.62396L15.024 4.22396C15.083 4.16903 15.1302 4.10279 15.163 4.02919C15.1958 3.95559 15.2135 3.87614 15.2149 3.79558C15.2163 3.71502 15.2015 3.63499 15.1713 3.56028C15.1411 3.48557 15.0962 3.41771 15.0392 3.36073C14.9823 3.30376 14.9144 3.25884 14.8397 3.22866C14.765 3.19849 14.6849 3.18367 14.6044 3.18509C14.5238 3.18651 14.4444 3.20414 14.3708 3.23694C14.2972 3.26973 14.2309 3.31701 14.176 3.37596L12.7776 4.77356C12.7444 3.86811 12.6739 2.96442 12.5664 2.06476C12.519 1.66763 12.3366 1.29886 12.0496 1.02023C11.7627 0.741611 11.3887 0.570071 10.9904 0.534361C9.00059 0.354432 6.99861 0.354432 5.0088 0.534361C4.6106 0.570245 4.23681 0.741862 3.95005 1.02047C3.66328 1.29908 3.48096 1.66776 3.4336 2.06476C3.3825 2.49321 3.33982 2.92263 3.3056 3.35276C3.29796 3.43199 3.30617 3.51196 3.32974 3.58799C3.35331 3.66402 3.39177 3.7346 3.44289 3.79562C3.49401 3.85664 3.55675 3.90687 3.62747 3.94341C3.6982 3.97994 3.77548 4.00203 3.85483 4.0084C3.93417 4.01477 4.01399 4.00528 4.08964 3.9805C4.16528 3.95572 4.23524 3.91613 4.29543 3.86405C4.35563 3.81196 4.40485 3.74842 4.44025 3.67712C4.47565 3.60583 4.4965 3.5282 4.5016 3.44876C4.5344 3.03276 4.576 2.61836 4.6248 2.20716C4.63955 2.08318 4.6965 1.96805 4.78608 1.88109C4.87567 1.79412 4.99244 1.74062 5.1168 1.72956C6.07543 1.64303 7.03747 1.59979 8 1.59996ZM4.2248 5.37596C4.1123 5.2636 3.9598 5.20049 3.8008 5.20049C3.6418 5.20049 3.4893 5.2636 3.3768 5.37596L0.976001 7.77596C0.917051 7.83089 0.86977 7.89713 0.836976 7.97073C0.804182 8.04433 0.786549 8.12378 0.785128 8.20434C0.783706 8.28491 0.798526 8.36493 0.828703 8.43964C0.85888 8.51435 0.903795 8.58222 0.96077 8.63919C1.01775 8.69617 1.08561 8.74108 1.16032 8.77126C1.23503 8.80144 1.31506 8.81626 1.39562 8.81483C1.47618 8.81341 1.55563 8.79578 1.62923 8.76299C1.70283 8.73019 1.76907 8.68291 1.824 8.62396L3.2224 7.22636C3.256 8.13916 3.3264 9.04236 3.4336 9.93516C3.48099 10.3323 3.66343 10.7011 3.95036 10.9797C4.23728 11.2583 4.61125 11.4299 5.0096 11.4656C6.99941 11.6454 9.00139 11.6454 10.9912 11.4656C11.3894 11.4297 11.7632 11.2581 12.05 10.9795C12.3367 10.7008 12.519 10.3322 12.5664 9.93516C12.6176 9.50796 12.66 9.07836 12.6944 8.64716C12.702 8.56793 12.6938 8.48797 12.6703 8.41194C12.6467 8.33591 12.6082 8.26533 12.5571 8.20431C12.506 8.14329 12.4432 8.09305 12.3725 8.05652C12.3018 8.01999 12.2245 7.99789 12.1452 7.99152C12.0658 7.98516 11.986 7.99464 11.9104 8.01942C11.8347 8.0442 11.7648 8.08379 11.7046 8.13587C11.6444 8.18796 11.5951 8.2515 11.5598 8.3228C11.5244 8.3941 11.5035 8.47172 11.4984 8.55116C11.4656 8.96716 11.424 9.38076 11.3752 9.79276C11.3605 9.91674 11.3035 10.0319 11.2139 10.1188C11.1243 10.2058 11.0076 10.2593 10.8832 10.2704C8.96498 10.4438 7.03502 10.4438 5.1168 10.2704C4.99244 10.2593 4.87567 10.2058 4.78608 10.1188C4.6965 10.0319 4.63955 9.91674 4.6248 9.79276C4.52479 8.95574 4.45807 8.11508 4.4248 7.27276L5.776 8.62476C5.88921 8.734 6.0408 8.79441 6.19812 8.79297C6.35544 8.79153 6.5059 8.72836 6.61709 8.61706C6.72828 8.50576 6.79131 8.35524 6.79261 8.19792C6.7939 8.0406 6.73335 7.88907 6.624 7.77596L4.2248 5.37596Z" fill="black"/>
</svg>
