<svg width="21" height="20" viewBox="0 0 21 20" fill="none" xmlns="http://www.w3.org/2000/svg">
<path fill-rule="evenodd" clip-rule="evenodd" d="M6.66167 0.581154C6.92197 0.451039 7.20899 0.383301 7.5 0.383301C7.791 0.383301 8.07801 0.451034 8.3383 0.581139C8.33829 0.581134 8.33831 0.581144 8.3383 0.581139L13.3341 3.07804C13.4377 3.13017 13.561 3.13065 13.6667 3.07762L17.5366 1.14319C18.7833 0.519861 20.25 1.42646 20.25 2.82001V15.305C20.25 16.0147 19.8489 16.6646 19.2134 16.9819M19.2134 16.9819L14.3708 19.4026C14.3602 19.4086 14.3494 19.4144 14.3384 19.4198C13.8109 19.6836 13.1898 19.6831 12.6624 19.4203L7.66759 16.9228L7.66589 16.922C7.5623 16.8699 7.43898 16.8694 7.33326 16.9224L3.46341 18.8568C2.21675 19.4802 0.75 18.5736 0.75 17.18V4.69501C0.75 3.98641 1.15008 3.33645 1.78659 3.01819L6.66167 0.581154M7.33233 1.92287C7.38439 1.89686 7.44181 1.8833 7.5 1.8833C7.5582 1.8833 7.61561 1.89685 7.66767 1.92287L12.6599 4.41798C12.6602 4.41815 12.6606 4.41832 12.6609 4.41848C13.189 4.68379 13.811 4.68321 14.3389 4.4186C14.3387 4.41866 14.339 4.41854 14.3389 4.4186L18.2073 2.48487C18.4567 2.3602 18.75 2.54157 18.75 2.82001V15.305C18.75 15.4471 18.6694 15.577 18.5433 15.6398L13.6676 18.0772C13.6613 18.0804 13.6549 18.0836 13.6487 18.087C13.5482 18.1303 13.4318 18.1278 13.3316 18.0778L8.34011 15.582C8.33986 15.5819 8.34035 15.5822 8.34011 15.582C7.81193 15.3166 7.18894 15.3168 6.66096 15.5815C6.66089 15.5815 6.66104 15.5815 6.66096 15.5815L2.79266 17.5152C2.54332 17.6398 2.25 17.4585 2.25 17.18V4.69501C2.25 4.55364 2.3299 4.42361 2.45736 4.35986C2.45734 4.35987 2.45737 4.35985 2.45736 4.35986L7.33233 1.92287ZM7.5 4.00001C7.91421 4.00001 8.25 4.3358 8.25 4.75001V13C8.25 13.4142 7.91421 13.75 7.5 13.75C7.08579 13.75 6.75 13.4142 6.75 13V4.75001C6.75 4.3358 7.08579 4.00001 7.5 4.00001ZM13.5 6.25001C13.9142 6.25001 14.25 6.5858 14.25 7.00001V15.25C14.25 15.6642 13.9142 16 13.5 16C13.0858 16 12.75 15.6642 12.75 15.25V7.00001C12.75 6.5858 13.0858 6.25001 13.5 6.25001Z" fill="black"/>
</svg>
