<svg width="28" height="28" viewBox="0 0 28 28" fill="none" xmlns="http://www.w3.org/2000/svg">
<path d="M1.5 13.1157L1.5 27.3681M1.5 21.2812H7.5636C7.5636 21.2812 8.01719 21.2911 8.30307 21.5781C8.58894 21.8651 8.59885 22.3204 8.59885 22.3204V27.3681M27.184 13.1157V27.3681M27.184 21.2812H21.1204C21.1204 21.2812 20.6669 21.2911 20.381 21.5781C20.0951 21.8651 20.0852 22.3204 20.0852 22.3204V27.3681M14.342 27.3681V8.66183M4.89453 17.5696H23.5414M3.25009 8.66183C3.10218 8.81029 25.2861 8.66183 25.2861 8.66183C25.5819 8.81029 21.8845 1.68408 14.342 1.68408C6.79953 1.68408 3.25009 8.66183 3.25009 8.66183Z" stroke="#9CA3AF" stroke-width="1.60525"/>
</svg>
