<svg width="25" height="24" viewBox="0 0 25 24" fill="none" xmlns="http://www.w3.org/2000/svg">
<path d="M1.29883 11.3652L1.29883 23.8099M1.29883 18.495H6.59334C6.59334 18.495 6.9894 18.5037 7.23902 18.7543C7.48863 19.0048 7.49728 19.4024 7.49728 19.4024V23.8099M23.7252 11.3652V23.8099M23.7252 18.495H18.4307C18.4307 18.495 18.0346 18.5037 17.785 18.7543C17.5354 19.0048 17.5267 19.4024 17.5267 19.4024V23.8099M12.512 23.8099V7.47626M4.26281 15.2542H20.5446M2.82694 7.47626C2.69779 7.60589 22.068 7.47626 22.068 7.47626C22.3262 7.60589 19.0978 1.38354 12.512 1.38354C5.92618 1.38354 2.82694 7.47626 2.82694 7.47626Z" stroke="#9CA3AF" stroke-width="1.60525"/>
</svg>
