<svg width="10" height="10" viewBox="0 0 10 10" fill="none" xmlns="http://www.w3.org/2000/svg">
<path fill-rule="evenodd" clip-rule="evenodd" d="M9.41597 0.37576C9.58145 0.486098 9.69633 0.657651 9.73534 0.852686C9.77435 1.04772 9.73429 1.25026 9.62397 1.41576L4.62397 8.91576C4.56239 9.008 4.48111 9.08544 4.386 9.14249C4.29089 9.19955 4.18431 9.23479 4.07393 9.2457C3.96356 9.2566 3.85214 9.24289 3.7477 9.20555C3.64326 9.16821 3.54841 9.10817 3.46997 9.02976L0.469969 6.02976C0.337489 5.88758 0.265365 5.69954 0.268794 5.50524C0.272222 5.31094 0.350934 5.12555 0.488347 4.98814C0.62576 4.85073 0.811145 4.77201 1.00545 4.76859C1.19975 4.76516 1.38779 4.83728 1.52997 4.96976L3.88297 7.32276L8.37597 0.58276C8.48646 0.417437 8.65809 0.302761 8.85311 0.263944C9.04814 0.225126 9.25059 0.265346 9.41597 0.37576Z" fill="black"/>
</svg>
