<svg width="16" height="16" viewBox="0 0 16 16" fill="none" xmlns="http://www.w3.org/2000/svg">
<path d="M14.6666 5.79339C14.6666 6.58672 14.5399 7.32005 14.3199 8.00005C13.2666 11.3334 10.0199 13.3267 8.41325 13.8734C8.18658 13.9534 7.81325 13.9534 7.58658 13.8734C7.15992 13.7267 6.61992 13.4801 6.03992 13.1334C5.66658 12.9134 5.60658 12.3934 5.91325 12.0867L13.4332 4.56672C13.7933 4.20672 14.4266 4.36005 14.5533 4.85339C14.6266 5.15339 14.6666 5.46672 14.6666 5.79339Z" fill="black"/>
<path d="M15.02 0.979961C14.8266 0.786628 14.5066 0.786628 14.3133 0.979961L12.7533 2.53996C12.2266 2.23996 11.6133 2.06663 10.96 2.06663C9.75329 2.06663 8.67329 2.65329 7.99996 3.55329C7.32663 2.65329 6.24663 2.06663 5.03996 2.06663C2.99329 2.06663 1.33329 3.73329 1.33329 5.79329C1.33329 6.58663 1.45996 7.31996 1.67996 7.99996C2.11329 9.37996 2.92663 10.5333 3.84663 11.4466L0.979961 14.3133C0.786628 14.5066 0.786628 14.8266 0.979961 15.02C1.07996 15.12 1.20663 15.1666 1.33329 15.1666C1.45996 15.1666 1.58663 15.12 1.68663 15.02L15.02 1.68663C15.2133 1.49329 15.2133 1.17329 15.02 0.979961Z" fill="black"/>
</svg>
