<svg width="16" height="16" viewBox="0 0 16 16" fill="none" xmlns="http://www.w3.org/2000/svg">
<path fill-rule="evenodd" clip-rule="evenodd" d="M3.10999 3.11048C4.14148 2.07899 5.54047 1.49951 6.99921 1.49951C8.45795 1.49951 9.85695 2.07899 10.8884 3.11048C11.9199 4.14196 12.4994 5.54096 12.4994 6.9997C12.4994 8.29083 12.0454 9.53515 11.2259 10.5193L14.3531 13.6465C14.5484 13.8417 14.5484 14.1583 14.3531 14.3536C14.1578 14.5488 13.8413 14.5488 13.646 14.3536L10.5188 11.2264C9.53466 12.0459 8.29034 12.4999 6.99921 12.4999C5.54047 12.4999 4.14148 11.9204 3.10999 10.8889C2.07851 9.85743 1.49902 8.45844 1.49902 6.9997C1.49902 5.54096 2.07851 4.14196 3.10999 3.11048ZM6.99921 2.49951C5.80569 2.49951 4.66105 2.97364 3.8171 3.81759C2.97315 4.66153 2.49902 5.80618 2.49902 6.9997C2.49902 8.19322 2.97315 9.33786 3.8171 10.1818C4.66105 11.0258 5.80569 11.4999 6.99921 11.4999C8.19273 11.4999 9.33738 11.0258 10.1813 10.1818C11.0253 9.33786 11.4994 8.19322 11.4994 6.9997C11.4994 5.80618 11.0253 4.66154 10.1813 3.81759C9.33738 2.97364 8.19273 2.49951 6.99921 2.49951Z" fill="white"/>
</svg>
