<svg width="24" height="18" viewBox="0 0 24 18" fill="none" xmlns="http://www.w3.org/2000/svg">
<g clip-path="url(#clip0_190_613)">
<path d="M0.791227 11.2551C0.749381 9.93456 0.750482 8.47315 0.791227 7.15263C0.88593 4.09831 1.00211 1.15837 4.71812 0.842328C7.59942 0.59701 10.6971 0.626846 13.5867 0.66939C15.4791 0.697015 17.4591 0.68044 19.3394 0.844538C23.0928 1.17163 23.1165 3.92151 23.2233 7.00013C23.3004 9.22402 23.5069 13.5486 22.6182 15.52C21.5665 17.8532 18.8934 17.5239 16.7499 17.6085C12.9458 17.7577 8.8157 17.8405 5.02811 17.5195C1.00046 17.1781 0.901347 14.7127 0.791227 11.2551ZM10.7037 1.96007C9.48964 1.97665 8.25849 2.02803 7.04662 2.07886C6.12656 2.11754 4.51825 2.05787 3.70226 2.37998C2.06642 3.02477 2.20077 5.62989 2.15176 7.08633C2.08129 9.17816 1.9976 11.6728 2.29107 13.7408C2.61042 15.9907 3.72043 16.115 5.72848 16.2426C9.35915 16.473 13.1187 16.4272 16.7477 16.283C17.7993 16.2415 19.9213 16.3393 20.7632 15.7741C21.9459 14.9807 21.8639 12.6032 21.9085 11.3219C21.9657 9.67156 21.9971 7.98527 21.9096 6.3349C21.7978 4.2171 21.8215 2.41203 19.2953 2.16837C16.5803 1.90648 13.4452 1.92305 10.7037 1.96007Z" fill="black"/>
<path d="M9.86718 5.35429C9.99437 5.33219 10.1243 5.34434 10.2531 5.34269C12.0646 6.22174 13.8161 7.25882 15.5824 8.23677C16.1677 8.7136 16.0526 9.41585 15.4409 9.80758C13.8976 10.7966 12.0151 11.537 10.4359 12.4983C9.85506 12.7332 9.23949 12.3381 9.17727 11.7176C9.00163 9.97057 9.30777 7.93676 9.17672 6.15931C9.20756 5.80459 9.51259 5.41507 9.86828 5.35429H9.86718ZM10.4932 6.93228V10.9469L14.1806 9.00532L10.4932 6.93228Z" fill="black"/>
</g>
<defs>
<clipPath id="clip0_190_613">
<rect width="22.54" height="17.0993" fill="white" transform="translate(0.759766 0.640625)"/>
</clipPath>
</defs>
</svg>
