<svg width="18" height="17" viewBox="0 0 18 17" fill="none" xmlns="http://www.w3.org/2000/svg">
<g clip-path="url(#clip0_190_607)">
<path d="M13.1582 0.140625L13.9932 0.307522C15.7026 0.794389 16.9292 2.35533 17.0357 4.13028L17.0342 12.9999C16.8903 15.1163 15.1973 16.8201 13.0763 16.9578L4.20669 16.9593C2.43175 16.8528 0.870805 15.6262 0.383938 13.9168L0.217041 13.0818V4.01662C0.388033 1.99543 2.06161 0.298307 4.09253 0.140625H13.1582ZM4.08587 1.56283C2.80138 1.71335 1.78003 2.75517 1.6331 4.0371L1.62952 13.0326C1.76928 14.3606 2.83926 15.4281 4.17341 15.5473L13.1085 15.5458C14.4406 15.4112 15.5004 14.332 15.6232 13.0019L15.6217 4.06679C15.4819 2.75056 14.433 1.68826 13.109 1.55413L4.08638 1.56334L4.08587 1.56283Z" fill="black"/>
<path d="M11.6026 5.57182C13.826 7.79524 12.8697 11.6661 9.86553 12.5656C6.51223 13.5696 3.48045 10.354 4.69173 7.06314C5.7356 4.22641 9.45955 3.42828 11.6026 5.57182ZM8.29025 5.76739C6.3525 5.95732 5.24259 8.15258 6.14465 9.86404C7.29194 12.0398 10.5817 11.7506 11.2944 9.3956C11.8944 7.41332 10.336 5.5667 8.29025 5.76739Z" fill="black"/>
<path d="M13.1508 2.9411C14.4814 2.89861 14.5812 4.89829 13.3392 5.03447C11.8356 5.19932 11.7317 2.98615 13.1508 2.9411Z" fill="black"/>
</g>
<defs>
<clipPath id="clip0_190_607">
<rect width="16.8192" height="16.8192" fill="white" transform="translate(0.216309 0.140625)"/>
</clipPath>
</defs>
</svg>
