<svg width="27" height="17" viewBox="0 0 27 17" fill="none" xmlns="http://www.w3.org/2000/svg">
<path d="M26.982 12.4356C26.7946 14.4908 25.1641 16.3601 23.1997 16.8459C19.5519 17.7485 16.2958 14.5592 17.0487 10.8335C17.3185 9.49783 18.1813 8.34949 19.2843 7.60007L18.368 5.344L13.1228 12.5653C13.015 12.6394 12.9164 12.6871 12.7847 12.7028C12.3719 12.7534 10.1554 12.6251 10.0145 12.7249C9.668 14.5293 8.45936 16.0915 6.72528 16.7013C2.58802 18.1567 -1.27808 14.0363 0.403871 9.93024C1.55969 7.10854 5.05108 5.94951 7.62895 7.57728L9.17355 5.74435L8.16635 3.32372C7.87828 3.30519 7.55358 3.3401 7.27748 3.23681C6.55413 2.96539 6.64992 1.7907 7.45991 1.71447C8.64389 1.60263 10.0279 1.78286 11.2309 1.74225C11.7754 1.94528 11.931 2.67902 11.495 3.07937C11.4119 3.1556 11.0844 3.3173 10.9921 3.3173H9.85958L10.5766 4.97428L17.4995 3.15702C17.2572 2.39763 16.405 1.35686 17.4854 0.877437C18.108 0.60175 19.3111 0.203535 19.9759 0.0389775C20.6697 -0.133416 21.1839 0.294718 21.0184 1.03986C20.8775 1.67315 19.3266 1.85053 18.8145 2.12052L20.7394 6.88984C20.8423 7.01522 21.3529 6.8471 21.5304 6.83713C24.2421 6.69038 26.727 8.61734 26.9827 11.4219C27.0073 11.6898 27.0073 12.1671 26.9827 12.4349L26.982 12.4356ZM12.81 10.3021L16.6022 5.02343L11.2506 6.46099L12.81 10.3028V10.3021ZM11.4394 11.1021L9.91099 7.42269L6.80346 11.1021H11.4401H11.4394ZM8.38329 12.7021H4.8271C4.66369 12.7021 4.38478 12.4136 4.31716 12.259C4.09811 11.7617 4.35872 11.501 4.64397 11.1306C5.24688 10.3491 5.99277 9.6289 6.59075 8.83604C4.03683 7.48111 1.10468 9.73647 1.65477 12.6066C2.11611 15.0101 4.90528 16.182 6.92391 14.8249C7.63528 14.3469 8.19312 13.5455 8.38258 12.7021H8.38329ZM19.9738 9.12953C18.7751 9.84618 18.3024 11.4319 18.6208 12.7662C19.3026 15.6221 23.0919 16.3508 24.7605 13.9459C26.5375 11.3849 24.3999 7.98547 21.3973 8.48982C21.8516 9.61964 22.3883 10.7295 22.7531 11.8893C22.7384 12.7185 21.7312 13.0319 21.2818 12.3117L19.9738 9.12882V9.12953Z" fill="black"/>
</svg>
