<svg width="21" height="21" viewBox="0 0 21 21" fill="none" xmlns="http://www.w3.org/2000/svg">
<g clip-path="url(#clip0_190_2517)">
<path d="M20.9962 6.60604V6.89326C20.7338 7.56858 20.6774 8.38915 20.4341 9.05899C20.2435 9.58301 19.7959 9.84174 19.259 9.63673C19.1023 9.57698 18.2109 8.9817 18.1671 9.02665C18.1271 9.44543 18.1769 9.97877 18.1074 10.3828C18.0235 10.8739 17.5058 11.1902 17.0259 11.0499L15.2141 10.1344V11.222C15.2141 11.2538 15.0854 11.5114 15.0503 11.5509C14.7555 11.8841 14.1156 11.757 14.0028 11.3261C13.9409 11.0899 13.9491 9.61919 13.9869 9.33854C14.0362 8.97786 14.3868 8.64952 14.7473 8.62047C15.1845 8.58484 16.06 9.20205 16.4835 9.41802C16.5558 9.45475 16.8949 9.64331 16.9349 9.60165C16.9859 9.04748 16.8495 7.99778 17.3075 7.61517C18.0515 6.99412 18.7352 7.97256 19.3537 8.28884C19.5186 7.74727 19.5997 7.13828 19.7843 6.60658C20.015 5.94278 20.7535 5.98389 20.994 6.60658L20.9962 6.60604Z" fill="black"/>
<path d="M19.3559 0C19.551 0.0729033 19.7361 0.0948292 19.9312 0.183629C20.5212 0.453316 20.8927 1.05628 20.9962 1.68226C20.988 1.78915 21.0077 1.90481 20.9962 2.0106C20.833 3.52074 19.0535 4.26128 17.8997 3.24283C16.7081 2.19094 17.3486 0.197332 18.9056 0.000548145H19.3565L19.3559 0ZM19.0174 1.24045C18.1342 1.38023 18.5106 2.84213 19.4129 2.41623C20.0413 2.11968 19.7389 1.12644 19.0174 1.24045Z" fill="black"/>
<path d="M0.180788 20.8296C0.0235524 20.6728 -0.0542436 20.3751 0.0421796 20.1647L4.54778 9.16009C4.579 9.00223 4.21577 8.70129 4.11004 8.54781C2.81599 6.66603 5.18165 4.43069 7.05588 6.01045L15.0519 14.0106C16.3426 15.3673 15.3768 17.5248 13.4708 17.3571C12.8051 17.2984 12.3619 16.8643 11.9148 16.423L0.956009 20.9151C0.713307 21.0455 0.383496 21.0318 0.180788 20.8296ZM5.65226 6.69672C5.0907 6.74167 4.76473 7.44385 5.14768 7.87908L13.2456 15.9829C13.954 16.485 14.7538 15.6847 14.252 14.9759L6.1541 6.87158C6.02645 6.7647 5.82045 6.68302 5.65226 6.69618V6.69672ZM10.0894 14.6065L5.49776 10.0114L4.76418 11.9759L10.0894 14.6065ZM9.88447 15.8798L4.28699 13.093L3.28277 15.4912L3.3014 15.5515L6.82961 17.1756L9.8264 15.9653L9.88447 15.8804V15.8798ZM5.25123 17.8482L2.81599 16.7031L1.76629 19.2438L5.25123 17.8482Z" fill="black"/>
<path d="M13.1941 0.255375C13.9611 0.0997019 14.0613 1.18667 14.4344 1.58079C14.6541 1.81266 15.3515 1.99957 15.6041 2.25665C15.8567 2.51373 15.8194 2.92046 15.5625 3.1589C15.3066 3.3968 14.6141 3.59084 14.4174 3.81832C14.2054 4.06389 14.0432 4.59833 13.8378 4.87953C13.674 5.10427 13.4225 5.17498 13.153 5.11907C12.7125 5.02753 12.5054 4.09294 12.2222 3.7942C12.0233 3.58426 11.3527 3.38419 11.093 3.16C10.8865 2.98185 10.8344 2.67708 10.9429 2.43371C11.1182 2.04014 11.9225 1.87186 12.2216 1.57969C12.5487 1.26013 12.6643 0.362812 13.1941 0.255375ZM13.3688 2.17443L13.2845 2.19965C13.2105 2.42603 13.0308 2.6113 12.7952 2.66667C12.9853 2.83604 13.2368 2.91278 13.2877 3.19946C13.4012 3.22906 13.3716 3.11286 13.4324 3.03776C13.5562 2.88318 13.6964 2.79 13.8614 2.68695C13.6406 2.56965 13.4236 2.44522 13.3688 2.17443Z" fill="black"/>
<path d="M7.20823 0.789073C7.67829 0.691503 8.05632 1.00998 7.99496 1.49399C7.96647 1.71818 7.39067 3.31548 7.26904 3.51664C6.90417 4.11851 6.00404 3.75618 6.15744 3.02112C6.24345 2.60946 6.62093 1.60362 6.80172 1.20347C6.88554 1.01875 6.98909 0.835117 7.20768 0.789621L7.20823 0.789073Z" fill="black"/>
<path d="M13.072 6.41037C13.519 6.32541 13.9316 6.5655 13.8844 7.05938C13.8543 7.37456 13.6658 7.49132 13.41 7.61026C13.1005 7.75443 11.7248 8.30586 11.4629 8.30641C10.8789 8.30805 10.6373 7.51872 11.1347 7.17997C11.2876 7.07582 12.8797 6.4471 13.0714 6.41037H13.072Z" fill="black"/>
<path d="M16.759 6.0583C16.1986 6.61905 15.3198 5.77107 15.8715 5.19058C16.4396 4.59255 17.326 5.49097 16.759 6.0583Z" fill="black"/>
<path d="M16.5476 12.373C17.2751 12.3714 17.3485 13.471 16.6681 13.5784C15.7301 13.727 15.6556 12.3747 16.5476 12.373Z" fill="black"/>
<path d="M10.1611 4.72869C10.9155 4.68594 11.0081 5.84526 10.3112 5.94558C9.3881 6.07823 9.33441 4.77583 10.1611 4.72869Z" fill="black"/>
</g>
<defs>
<clipPath id="clip0_190_2517">
<rect width="21" height="21" fill="white"/>
</clipPath>
</defs>
</svg>
