<svg width="20" height="20" viewBox="0 0 20 20" fill="none" xmlns="http://www.w3.org/2000/svg">
<path d="M15.8084 18.3337H4.14172C1.64172 18.3337 1.64172 17.2087 1.64172 15.8337V15.0003C1.64172 14.542 2.01672 14.167 2.47506 14.167H17.4751C17.9334 14.167 18.3084 14.542 18.3084 15.0003V15.8337C18.3084 17.2087 18.3084 18.3337 15.8084 18.3337Z" stroke="white" stroke-width="1.5" stroke-linecap="round" stroke-linejoin="round"/>
<path d="M17.2668 10.8337V14.167H2.7251V10.8337C2.7251 7.63366 4.98343 4.95866 7.99176 4.31699C8.44176 4.21699 8.90843 4.16699 9.39176 4.16699H10.6001C11.0834 4.16699 11.5584 4.21699 12.0084 4.31699C15.0168 4.96699 17.2668 7.63366 17.2668 10.8337Z" stroke="white" stroke-width="1.5" stroke-linecap="round" stroke-linejoin="round"/>
<path d="M12.0833 3.75033C12.0833 3.95033 12.0583 4.13366 12.0083 4.31699C11.5583 4.21699 11.0833 4.16699 10.6 4.16699H9.39163C8.90829 4.16699 8.44163 4.21699 7.99163 4.31699C7.94163 4.13366 7.91663 3.95033 7.91663 3.75033C7.91663 2.60033 8.84996 1.66699 9.99996 1.66699C11.15 1.66699 12.0833 2.60033 12.0833 3.75033Z" stroke="white" stroke-width="1.5" stroke-linecap="round" stroke-linejoin="round"/>
<path d="M12.5 9.16699H7.5" stroke="white" stroke-width="1.5" stroke-linecap="round" stroke-linejoin="round"/>
</svg>
